<svg width="488" height="97" viewBox="0 0 488 97" fill="none" xmlns="http://www.w3.org/2000/svg">
<path d="M70.4417 13.7417L70.4417 16.1667" stroke="white" stroke-width="2.5" stroke-linecap="round" stroke-linejoin="round"/>
<path d="M33.8833 13.7417L33.8833 16.1667" stroke="white" stroke-width="2.5" stroke-linecap="round" stroke-linejoin="round"/>
<path d="M84.7083 16.1667H22.2917C17.3671 16.1667 13.375 19.7857 13.375 24.25V80.8333C13.375 85.2976 17.3671 88.9167 22.2917 88.9167H84.7083C89.6329 88.9167 93.625 85.2976 93.625 80.8333V24.25C93.625 19.7857 89.6329 16.1667 84.7083 16.1667Z" fill="#0F172A" stroke="#334155" stroke-width="2.5" stroke-linecap="round" stroke-linejoin="round"/>
<path opacity="0.9" d="M13.375 40.4167H93.625" stroke="white" stroke-width="2.5" stroke-linecap="round" stroke-linejoin="round"/>
<line x1="80" y1="42" x2="80" y2="79.1833" stroke="#2DD4BF" stroke-width="4"/>
<line y1="-2" x2="37.1755" y2="-2" transform="matrix(0.00259297 0.999997 -0.999997 0.00257381 24.0991 42.2574)" stroke="#60A5FA" stroke-width="4"/>
<mask id="path-7-outside-1_8_19" maskUnits="userSpaceOnUse" x="104" y="33" width="315" height="47" fill="black">
<rect fill="white" x="104" y="33" width="315" height="47"/>
<path d="M129.932 50H126.409C126.201 48.9867 125.836 48.0966 125.315 47.3295C124.804 46.5625 124.179 45.9186 123.44 45.3977C122.711 44.8674 121.902 44.4697 121.011 44.2045C120.121 43.9394 119.193 43.8068 118.227 43.8068C116.466 43.8068 114.87 44.2519 113.44 45.142C112.02 46.0322 110.888 47.3438 110.045 49.0767C109.212 50.8097 108.795 52.9356 108.795 55.4545C108.795 57.9735 109.212 60.0994 110.045 61.8324C110.888 63.5653 112.02 64.8769 113.44 65.767C114.87 66.6572 116.466 67.1023 118.227 67.1023C119.193 67.1023 120.121 66.9697 121.011 66.7045C121.902 66.4394 122.711 66.0464 123.44 65.5256C124.179 64.9953 124.804 64.3466 125.315 63.5795C125.836 62.803 126.201 61.9129 126.409 60.9091H129.932C129.667 62.3958 129.184 63.7263 128.483 64.9006C127.782 66.0748 126.911 67.0739 125.869 67.8977C124.828 68.7121 123.658 69.3324 122.361 69.7585C121.073 70.1847 119.695 70.3977 118.227 70.3977C115.746 70.3977 113.54 69.7917 111.608 68.5795C109.676 67.3674 108.156 65.6439 107.048 63.4091C105.94 61.1742 105.386 58.5227 105.386 55.4545C105.386 52.3864 105.94 49.7348 107.048 47.5C108.156 45.2652 109.676 43.5417 111.608 42.3295C113.54 41.1174 115.746 40.5114 118.227 40.5114C119.695 40.5114 121.073 40.7244 122.361 41.1506C123.658 41.5767 124.828 42.2017 125.869 43.0256C126.911 43.84 127.782 44.8343 128.483 46.0085C129.184 47.1733 129.667 48.5038 129.932 50ZM148.92 61.0795V48.1818H152.272V70H148.92V66.3068H148.692C148.181 67.4148 147.386 68.357 146.306 69.1335C145.227 69.9006 143.863 70.2841 142.215 70.2841C140.852 70.2841 139.639 69.9858 138.579 69.3892C137.518 68.7831 136.685 67.8741 136.079 66.6619C135.473 65.4403 135.17 63.9015 135.17 62.0455V48.1818H138.522V61.8182C138.522 63.4091 138.967 64.678 139.857 65.625C140.757 66.572 141.903 67.0455 143.295 67.0455C144.128 67.0455 144.976 66.8324 145.837 66.4062C146.709 65.9801 147.438 65.3267 148.025 64.446C148.621 63.5653 148.92 62.4432 148.92 61.0795ZM173.866 53.0682L170.855 53.9205C170.666 53.4186 170.386 52.9309 170.017 52.4574C169.657 51.9744 169.165 51.5767 168.54 51.2642C167.915 50.9517 167.115 50.7955 166.139 50.7955C164.804 50.7955 163.691 51.1032 162.801 51.7188C161.92 52.3248 161.48 53.0966 161.48 54.0341C161.48 54.8674 161.783 55.5256 162.389 56.0085C162.995 56.4915 163.942 56.8939 165.23 57.2159L168.469 58.0114C170.42 58.4848 171.873 59.2093 172.83 60.1847C173.786 61.1506 174.264 62.3958 174.264 63.9205C174.264 65.1705 173.904 66.2879 173.185 67.2727C172.474 68.2576 171.48 69.0341 170.202 69.6023C168.923 70.1705 167.437 70.4545 165.741 70.4545C163.516 70.4545 161.674 69.9716 160.216 69.0057C158.758 68.0398 157.834 66.6288 157.446 64.7727L160.628 63.9773C160.931 65.1515 161.504 66.0322 162.347 66.6193C163.199 67.2064 164.312 67.5 165.685 67.5C167.247 67.5 168.488 67.1686 169.406 66.5057C170.334 65.8333 170.798 65.0284 170.798 64.0909C170.798 63.3333 170.533 62.6989 170.003 62.1875C169.473 61.6667 168.658 61.2784 167.56 61.0227L163.923 60.1705C161.925 59.697 160.457 58.9631 159.52 57.9688C158.592 56.965 158.128 55.7102 158.128 54.2045C158.128 52.9735 158.473 51.8845 159.165 50.9375C159.866 49.9905 160.817 49.2472 162.02 48.7074C163.232 48.1676 164.605 47.8977 166.139 47.8977C168.298 47.8977 169.993 48.3712 171.224 49.3182C172.465 50.2652 173.346 51.5152 173.866 53.0682ZM188.799 48.1818V51.0227H177.492V48.1818H188.799ZM180.788 42.9545H184.14V63.75C184.14 64.697 184.277 65.4072 184.552 65.8807C184.836 66.3447 185.196 66.6572 185.631 66.8182C186.076 66.9697 186.545 67.0455 187.038 67.0455C187.407 67.0455 187.71 67.0265 187.947 66.9886C188.183 66.9413 188.373 66.9034 188.515 66.875L189.197 69.8864C188.969 69.9716 188.652 70.0568 188.245 70.142C187.838 70.2367 187.322 70.2841 186.697 70.2841C185.75 70.2841 184.822 70.0805 183.913 69.6733C183.013 69.2661 182.265 68.6458 181.668 67.8125C181.081 66.9792 180.788 65.928 180.788 64.6591V42.9545ZM202.471 70.4545C200.501 70.4545 198.773 69.9858 197.286 69.0483C195.809 68.1108 194.654 66.7992 193.82 65.1136C192.996 63.428 192.585 61.4583 192.585 59.2045C192.585 56.9318 192.996 54.9479 193.82 53.2528C194.654 51.5578 195.809 50.2415 197.286 49.304C198.773 48.3665 200.501 47.8977 202.471 47.8977C204.441 47.8977 206.164 48.3665 207.641 49.304C209.128 50.2415 210.283 51.5578 211.107 53.2528C211.941 54.9479 212.357 56.9318 212.357 59.2045C212.357 61.4583 211.941 63.428 211.107 65.1136C210.283 66.7992 209.128 68.1108 207.641 69.0483C206.164 69.9858 204.441 70.4545 202.471 70.4545ZM202.471 67.4432C203.967 67.4432 205.198 67.0597 206.164 66.2926C207.13 65.5256 207.845 64.517 208.309 63.267C208.773 62.017 209.005 60.6629 209.005 59.2045C209.005 57.7462 208.773 56.3873 208.309 55.1278C207.845 53.8684 207.13 52.8504 206.164 52.0739C205.198 51.2973 203.967 50.9091 202.471 50.9091C200.975 50.9091 199.744 51.2973 198.778 52.0739C197.812 52.8504 197.097 53.8684 196.633 55.1278C196.169 56.3873 195.937 57.7462 195.937 59.2045C195.937 60.6629 196.169 62.017 196.633 63.267C197.097 64.517 197.812 65.5256 198.778 66.2926C199.744 67.0597 200.975 67.4432 202.471 67.4432ZM225.713 70.4545C223.895 70.4545 222.29 69.9953 220.898 69.0767C219.506 68.1487 218.417 66.8419 217.631 65.1562C216.845 63.4612 216.452 61.4583 216.452 59.1477C216.452 56.8561 216.845 54.8674 217.631 53.1818C218.417 51.4962 219.51 50.1941 220.912 49.2756C222.313 48.357 223.933 47.8977 225.77 47.8977C227.19 47.8977 228.313 48.1345 229.136 48.608C229.97 49.072 230.604 49.6023 231.04 50.1989C231.485 50.786 231.83 51.2689 232.077 51.6477H232.361V40.9091H235.713V70H232.474V66.6477H232.077C231.83 67.0455 231.48 67.5473 231.026 68.1534C230.571 68.75 229.922 69.285 229.08 69.7585C228.237 70.2225 227.115 70.4545 225.713 70.4545ZM226.168 67.4432C227.512 67.4432 228.649 67.0928 229.577 66.392C230.505 65.6818 231.21 64.7017 231.693 63.4517C232.176 62.1922 232.418 60.7386 232.418 59.0909C232.418 57.4621 232.181 56.0369 231.707 54.8153C231.234 53.5843 230.533 52.6278 229.605 51.946C228.677 51.2547 227.531 50.9091 226.168 50.9091C224.747 50.9091 223.563 51.2737 222.616 52.0028C221.679 52.7225 220.973 53.7027 220.5 54.9432C220.036 56.1742 219.804 57.5568 219.804 59.0909C219.804 60.6439 220.041 62.0549 220.514 63.3239C220.997 64.5833 221.707 65.5871 222.645 66.3352C223.592 67.0739 224.766 67.4432 226.168 67.4432ZM244.477 78.1818C243.909 78.1818 243.402 78.1345 242.957 78.0398C242.512 77.9545 242.205 77.8693 242.034 77.7841L242.886 74.8295C243.701 75.0379 244.42 75.1136 245.045 75.0568C245.67 75 246.224 74.7206 246.707 74.2188C247.2 73.7263 247.65 72.9261 248.057 71.8182L248.682 70.1136L240.614 48.1818H244.25L250.273 65.5682H250.5L256.523 48.1818H260.159L250.898 73.1818C250.481 74.3087 249.965 75.2415 249.349 75.9801C248.734 76.7282 248.019 77.2822 247.205 77.642C246.4 78.0019 245.491 78.1818 244.477 78.1818ZM265.743 70V35.0909H277.947C280.379 35.0909 282.385 35.5114 283.964 36.3523C285.544 37.1818 286.72 38.3011 287.493 39.7102C288.266 41.108 288.652 42.6591 288.652 44.3636C288.652 45.8636 288.385 47.1023 287.851 48.0795C287.328 49.0568 286.635 49.8295 285.771 50.3977C284.919 50.9659 283.993 51.3864 282.993 51.6591V52C284.061 52.0682 285.135 52.4432 286.214 53.125C287.294 53.8068 288.197 54.7841 288.925 56.0568C289.652 57.3295 290.016 58.8864 290.016 60.7273C290.016 62.4773 289.618 64.0511 288.822 65.4489C288.027 66.8466 286.771 67.9545 285.055 68.7727C283.339 69.5909 281.107 70 278.357 70H265.743ZM269.97 66.25H278.357C281.118 66.25 283.078 65.7159 284.237 64.6477C285.408 63.5682 285.993 62.2614 285.993 60.7273C285.993 59.5455 285.692 58.4545 285.089 57.4545C284.487 56.4432 283.629 55.6364 282.516 55.0341C281.402 54.4205 280.084 54.1136 278.561 54.1136H269.97V66.25ZM269.97 50.4318H277.811C279.084 50.4318 280.232 50.1818 281.254 49.6818C282.288 49.1818 283.107 48.4773 283.709 47.5682C284.322 46.6591 284.629 45.5909 284.629 44.3636C284.629 42.8295 284.095 41.5284 283.027 40.4602C281.959 39.3807 280.266 38.8409 277.947 38.8409H269.97V50.4318ZM312.916 59.2955V43.8182H316.939V70H312.916V65.5682H312.643C312.03 66.8977 311.075 68.0284 309.78 68.9602C308.484 69.8807 306.848 70.3409 304.871 70.3409C303.234 70.3409 301.78 69.983 300.507 69.267C299.234 68.5398 298.234 67.4489 297.507 65.9943C296.78 64.5284 296.416 62.6818 296.416 60.4545V43.8182H300.439V60.1818C300.439 62.0909 300.973 63.6136 302.041 64.75C303.121 65.8864 304.496 66.4545 306.166 66.4545C307.166 66.4545 308.183 66.1989 309.217 65.6875C310.263 65.1761 311.138 64.392 311.842 63.3352C312.558 62.2784 312.916 60.9318 312.916 59.2955ZM324.307 70V43.8182H328.33V70H324.307ZM326.352 39.4545C325.568 39.4545 324.892 39.1875 324.324 38.6534C323.767 38.1193 323.489 37.4773 323.489 36.7273C323.489 35.9773 323.767 35.3352 324.324 34.8011C324.892 34.267 325.568 34 326.352 34C327.136 34 327.807 34.267 328.364 34.8011C328.932 35.3352 329.216 35.9773 329.216 36.7273C329.216 37.4773 328.932 38.1193 328.364 38.6534C327.807 39.1875 327.136 39.4545 326.352 39.4545ZM339.72 35.0909V70H335.697V35.0909H339.72ZM356.974 70.5455C354.793 70.5455 352.866 69.9943 351.196 68.892C349.526 67.7784 348.219 66.2102 347.276 64.1875C346.332 62.1534 345.861 59.75 345.861 56.9773C345.861 54.2273 346.332 51.8409 347.276 49.8182C348.219 47.7955 349.531 46.233 351.213 45.1307C352.895 44.0284 354.838 43.4773 357.043 43.4773C358.747 43.4773 360.094 43.7614 361.082 44.3295C362.082 44.8864 362.844 45.5227 363.366 46.2386C363.901 46.9432 364.315 47.5227 364.611 47.9773H364.952V35.0909H368.974V70H365.088V65.9773H364.611C364.315 66.4545 363.895 67.0568 363.349 67.7841C362.804 68.5 362.026 69.142 361.014 69.7102C360.003 70.267 358.656 70.5455 356.974 70.5455ZM357.52 66.9318C359.134 66.9318 360.497 66.5114 361.611 65.6705C362.724 64.8182 363.571 63.642 364.151 62.142C364.73 60.6307 365.02 58.8864 365.02 56.9091C365.02 54.9545 364.736 53.2443 364.168 51.7784C363.599 50.3011 362.759 49.1534 361.645 48.3352C360.531 47.5057 359.156 47.0909 357.52 47.0909C355.815 47.0909 354.395 47.5284 353.259 48.4034C352.134 49.267 351.287 50.4432 350.719 51.9318C350.162 53.4091 349.884 55.0682 349.884 56.9091C349.884 58.7727 350.168 60.4659 350.736 61.9886C351.315 63.5 352.168 64.7045 353.293 65.6023C354.429 66.4886 355.838 66.9318 357.52 66.9318ZM387.878 70.5455C385.355 70.5455 383.179 69.9886 381.349 68.875C379.531 67.75 378.128 66.1818 377.139 64.1705C376.162 62.1477 375.673 59.7955 375.673 57.1136C375.673 54.4318 376.162 52.0682 377.139 50.0227C378.128 47.9659 379.503 46.3636 381.264 45.2159C383.037 44.0568 385.105 43.4773 387.469 43.4773C388.832 43.4773 390.179 43.7045 391.509 44.1591C392.838 44.6136 394.048 45.3523 395.139 46.375C396.23 47.3864 397.099 48.7273 397.747 50.3977C398.395 52.0682 398.719 54.125 398.719 56.5682V58.2727H378.537V54.7955H394.628C394.628 53.3182 394.332 52 393.741 50.8409C393.162 49.6818 392.332 48.767 391.253 48.0966C390.185 47.4261 388.923 47.0909 387.469 47.0909C385.866 47.0909 384.48 47.4886 383.31 48.2841C382.151 49.0682 381.259 50.0909 380.634 51.3523C380.009 52.6136 379.696 53.9659 379.696 55.4091V57.7273C379.696 59.7045 380.037 61.3807 380.719 62.7557C381.412 64.1193 382.372 65.1591 383.599 65.875C384.827 66.5795 386.253 66.9318 387.878 66.9318C388.935 66.9318 389.889 66.7841 390.741 66.4886C391.605 66.1818 392.349 65.7273 392.974 65.125C393.599 64.5114 394.082 63.75 394.423 62.8409L398.31 63.9318C397.901 65.25 397.213 66.4091 396.247 67.4091C395.281 68.3977 394.088 69.1705 392.668 69.7273C391.247 70.2727 389.651 70.5455 387.878 70.5455ZM404.838 70V43.8182H408.724V47.7727H408.997C409.474 46.4773 410.338 45.4261 411.588 44.6193C412.838 43.8125 414.247 43.4091 415.815 43.4091C416.111 43.4091 416.48 43.4148 416.923 43.4261C417.366 43.4375 417.702 43.4545 417.929 43.4773V47.5682C417.793 47.5341 417.48 47.483 416.991 47.4148C416.514 47.3352 416.009 47.2955 415.474 47.2955C414.202 47.2955 413.065 47.5625 412.065 48.0966C411.077 48.6193 410.293 49.3466 409.713 50.2784C409.145 51.1989 408.861 52.25 408.861 53.4318V70H404.838Z"/>
</mask>
<path d="M129.932 50H126.409C126.201 48.9867 125.836 48.0966 125.315 47.3295C124.804 46.5625 124.179 45.9186 123.44 45.3977C122.711 44.8674 121.902 44.4697 121.011 44.2045C120.121 43.9394 119.193 43.8068 118.227 43.8068C116.466 43.8068 114.87 44.2519 113.44 45.142C112.02 46.0322 110.888 47.3438 110.045 49.0767C109.212 50.8097 108.795 52.9356 108.795 55.4545C108.795 57.9735 109.212 60.0994 110.045 61.8324C110.888 63.5653 112.02 64.8769 113.44 65.767C114.87 66.6572 116.466 67.1023 118.227 67.1023C119.193 67.1023 120.121 66.9697 121.011 66.7045C121.902 66.4394 122.711 66.0464 123.44 65.5256C124.179 64.9953 124.804 64.3466 125.315 63.5795C125.836 62.803 126.201 61.9129 126.409 60.9091H129.932C129.667 62.3958 129.184 63.7263 128.483 64.9006C127.782 66.0748 126.911 67.0739 125.869 67.8977C124.828 68.7121 123.658 69.3324 122.361 69.7585C121.073 70.1847 119.695 70.3977 118.227 70.3977C115.746 70.3977 113.54 69.7917 111.608 68.5795C109.676 67.3674 108.156 65.6439 107.048 63.4091C105.94 61.1742 105.386 58.5227 105.386 55.4545C105.386 52.3864 105.94 49.7348 107.048 47.5C108.156 45.2652 109.676 43.5417 111.608 42.3295C113.54 41.1174 115.746 40.5114 118.227 40.5114C119.695 40.5114 121.073 40.7244 122.361 41.1506C123.658 41.5767 124.828 42.2017 125.869 43.0256C126.911 43.84 127.782 44.8343 128.483 46.0085C129.184 47.1733 129.667 48.5038 129.932 50ZM148.92 61.0795V48.1818H152.272V70H148.92V66.3068H148.692C148.181 67.4148 147.386 68.357 146.306 69.1335C145.227 69.9006 143.863 70.2841 142.215 70.2841C140.852 70.2841 139.639 69.9858 138.579 69.3892C137.518 68.7831 136.685 67.8741 136.079 66.6619C135.473 65.4403 135.17 63.9015 135.17 62.0455V48.1818H138.522V61.8182C138.522 63.4091 138.967 64.678 139.857 65.625C140.757 66.572 141.903 67.0455 143.295 67.0455C144.128 67.0455 144.976 66.8324 145.837 66.4062C146.709 65.9801 147.438 65.3267 148.025 64.446C148.621 63.5653 148.92 62.4432 148.92 61.0795ZM173.866 53.0682L170.855 53.9205C170.666 53.4186 170.386 52.9309 170.017 52.4574C169.657 51.9744 169.165 51.5767 168.54 51.2642C167.915 50.9517 167.115 50.7955 166.139 50.7955C164.804 50.7955 163.691 51.1032 162.801 51.7188C161.92 52.3248 161.48 53.0966 161.48 54.0341C161.48 54.8674 161.783 55.5256 162.389 56.0085C162.995 56.4915 163.942 56.8939 165.23 57.2159L168.469 58.0114C170.42 58.4848 171.873 59.2093 172.83 60.1847C173.786 61.1506 174.264 62.3958 174.264 63.9205C174.264 65.1705 173.904 66.2879 173.185 67.2727C172.474 68.2576 171.48 69.0341 170.202 69.6023C168.923 70.1705 167.437 70.4545 165.741 70.4545C163.516 70.4545 161.674 69.9716 160.216 69.0057C158.758 68.0398 157.834 66.6288 157.446 64.7727L160.628 63.9773C160.931 65.1515 161.504 66.0322 162.347 66.6193C163.199 67.2064 164.312 67.5 165.685 67.5C167.247 67.5 168.488 67.1686 169.406 66.5057C170.334 65.8333 170.798 65.0284 170.798 64.0909C170.798 63.3333 170.533 62.6989 170.003 62.1875C169.473 61.6667 168.658 61.2784 167.56 61.0227L163.923 60.1705C161.925 59.697 160.457 58.9631 159.52 57.9688C158.592 56.965 158.128 55.7102 158.128 54.2045C158.128 52.9735 158.473 51.8845 159.165 50.9375C159.866 49.9905 160.817 49.2472 162.02 48.7074C163.232 48.1676 164.605 47.8977 166.139 47.8977C168.298 47.8977 169.993 48.3712 171.224 49.3182C172.465 50.2652 173.346 51.5152 173.866 53.0682ZM188.799 48.1818V51.0227H177.492V48.1818H188.799ZM180.788 42.9545H184.14V63.75C184.14 64.697 184.277 65.4072 184.552 65.8807C184.836 66.3447 185.196 66.6572 185.631 66.8182C186.076 66.9697 186.545 67.0455 187.038 67.0455C187.407 67.0455 187.71 67.0265 187.947 66.9886C188.183 66.9413 188.373 66.9034 188.515 66.875L189.197 69.8864C188.969 69.9716 188.652 70.0568 188.245 70.142C187.838 70.2367 187.322 70.2841 186.697 70.2841C185.75 70.2841 184.822 70.0805 183.913 69.6733C183.013 69.2661 182.265 68.6458 181.668 67.8125C181.081 66.9792 180.788 65.928 180.788 64.6591V42.9545ZM202.471 70.4545C200.501 70.4545 198.773 69.9858 197.286 69.0483C195.809 68.1108 194.654 66.7992 193.82 65.1136C192.996 63.428 192.585 61.4583 192.585 59.2045C192.585 56.9318 192.996 54.9479 193.82 53.2528C194.654 51.5578 195.809 50.2415 197.286 49.304C198.773 48.3665 200.501 47.8977 202.471 47.8977C204.441 47.8977 206.164 48.3665 207.641 49.304C209.128 50.2415 210.283 51.5578 211.107 53.2528C211.941 54.9479 212.357 56.9318 212.357 59.2045C212.357 61.4583 211.941 63.428 211.107 65.1136C210.283 66.7992 209.128 68.1108 207.641 69.0483C206.164 69.9858 204.441 70.4545 202.471 70.4545ZM202.471 67.4432C203.967 67.4432 205.198 67.0597 206.164 66.2926C207.13 65.5256 207.845 64.517 208.309 63.267C208.773 62.017 209.005 60.6629 209.005 59.2045C209.005 57.7462 208.773 56.3873 208.309 55.1278C207.845 53.8684 207.13 52.8504 206.164 52.0739C205.198 51.2973 203.967 50.9091 202.471 50.9091C200.975 50.9091 199.744 51.2973 198.778 52.0739C197.812 52.8504 197.097 53.8684 196.633 55.1278C196.169 56.3873 195.937 57.7462 195.937 59.2045C195.937 60.6629 196.169 62.017 196.633 63.267C197.097 64.517 197.812 65.5256 198.778 66.2926C199.744 67.0597 200.975 67.4432 202.471 67.4432ZM225.713 70.4545C223.895 70.4545 222.29 69.9953 220.898 69.0767C219.506 68.1487 218.417 66.8419 217.631 65.1562C216.845 63.4612 216.452 61.4583 216.452 59.1477C216.452 56.8561 216.845 54.8674 217.631 53.1818C218.417 51.4962 219.51 50.1941 220.912 49.2756C222.313 48.357 223.933 47.8977 225.77 47.8977C227.19 47.8977 228.313 48.1345 229.136 48.608C229.97 49.072 230.604 49.6023 231.04 50.1989C231.485 50.786 231.83 51.2689 232.077 51.6477H232.361V40.9091H235.713V70H232.474V66.6477H232.077C231.83 67.0455 231.48 67.5473 231.026 68.1534C230.571 68.75 229.922 69.285 229.08 69.7585C228.237 70.2225 227.115 70.4545 225.713 70.4545ZM226.168 67.4432C227.512 67.4432 228.649 67.0928 229.577 66.392C230.505 65.6818 231.21 64.7017 231.693 63.4517C232.176 62.1922 232.418 60.7386 232.418 59.0909C232.418 57.4621 232.181 56.0369 231.707 54.8153C231.234 53.5843 230.533 52.6278 229.605 51.946C228.677 51.2547 227.531 50.9091 226.168 50.9091C224.747 50.9091 223.563 51.2737 222.616 52.0028C221.679 52.7225 220.973 53.7027 220.5 54.9432C220.036 56.1742 219.804 57.5568 219.804 59.0909C219.804 60.6439 220.041 62.0549 220.514 63.3239C220.997 64.5833 221.707 65.5871 222.645 66.3352C223.592 67.0739 224.766 67.4432 226.168 67.4432ZM244.477 78.1818C243.909 78.1818 243.402 78.1345 242.957 78.0398C242.512 77.9545 242.205 77.8693 242.034 77.7841L242.886 74.8295C243.701 75.0379 244.42 75.1136 245.045 75.0568C245.67 75 246.224 74.7206 246.707 74.2188C247.2 73.7263 247.65 72.9261 248.057 71.8182L248.682 70.1136L240.614 48.1818H244.25L250.273 65.5682H250.5L256.523 48.1818H260.159L250.898 73.1818C250.481 74.3087 249.965 75.2415 249.349 75.9801C248.734 76.7282 248.019 77.2822 247.205 77.642C246.4 78.0019 245.491 78.1818 244.477 78.1818ZM265.743 70V35.0909H277.947C280.379 35.0909 282.385 35.5114 283.964 36.3523C285.544 37.1818 286.72 38.3011 287.493 39.7102C288.266 41.108 288.652 42.6591 288.652 44.3636C288.652 45.8636 288.385 47.1023 287.851 48.0795C287.328 49.0568 286.635 49.8295 285.771 50.3977C284.919 50.9659 283.993 51.3864 282.993 51.6591V52C284.061 52.0682 285.135 52.4432 286.214 53.125C287.294 53.8068 288.197 54.7841 288.925 56.0568C289.652 57.3295 290.016 58.8864 290.016 60.7273C290.016 62.4773 289.618 64.0511 288.822 65.4489C288.027 66.8466 286.771 67.9545 285.055 68.7727C283.339 69.5909 281.107 70 278.357 70H265.743ZM269.97 66.25H278.357C281.118 66.25 283.078 65.7159 284.237 64.6477C285.408 63.5682 285.993 62.2614 285.993 60.7273C285.993 59.5455 285.692 58.4545 285.089 57.4545C284.487 56.4432 283.629 55.6364 282.516 55.0341C281.402 54.4205 280.084 54.1136 278.561 54.1136H269.97V66.25ZM269.97 50.4318H277.811C279.084 50.4318 280.232 50.1818 281.254 49.6818C282.288 49.1818 283.107 48.4773 283.709 47.5682C284.322 46.6591 284.629 45.5909 284.629 44.3636C284.629 42.8295 284.095 41.5284 283.027 40.4602C281.959 39.3807 280.266 38.8409 277.947 38.8409H269.97V50.4318ZM312.916 59.2955V43.8182H316.939V70H312.916V65.5682H312.643C312.03 66.8977 311.075 68.0284 309.78 68.9602C308.484 69.8807 306.848 70.3409 304.871 70.3409C303.234 70.3409 301.78 69.983 300.507 69.267C299.234 68.5398 298.234 67.4489 297.507 65.9943C296.78 64.5284 296.416 62.6818 296.416 60.4545V43.8182H300.439V60.1818C300.439 62.0909 300.973 63.6136 302.041 64.75C303.121 65.8864 304.496 66.4545 306.166 66.4545C307.166 66.4545 308.183 66.1989 309.217 65.6875C310.263 65.1761 311.138 64.392 311.842 63.3352C312.558 62.2784 312.916 60.9318 312.916 59.2955ZM324.307 70V43.8182H328.33V70H324.307ZM326.352 39.4545C325.568 39.4545 324.892 39.1875 324.324 38.6534C323.767 38.1193 323.489 37.4773 323.489 36.7273C323.489 35.9773 323.767 35.3352 324.324 34.8011C324.892 34.267 325.568 34 326.352 34C327.136 34 327.807 34.267 328.364 34.8011C328.932 35.3352 329.216 35.9773 329.216 36.7273C329.216 37.4773 328.932 38.1193 328.364 38.6534C327.807 39.1875 327.136 39.4545 326.352 39.4545ZM339.72 35.0909V70H335.697V35.0909H339.72ZM356.974 70.5455C354.793 70.5455 352.866 69.9943 351.196 68.892C349.526 67.7784 348.219 66.2102 347.276 64.1875C346.332 62.1534 345.861 59.75 345.861 56.9773C345.861 54.2273 346.332 51.8409 347.276 49.8182C348.219 47.7955 349.531 46.233 351.213 45.1307C352.895 44.0284 354.838 43.4773 357.043 43.4773C358.747 43.4773 360.094 43.7614 361.082 44.3295C362.082 44.8864 362.844 45.5227 363.366 46.2386C363.901 46.9432 364.315 47.5227 364.611 47.9773H364.952V35.0909H368.974V70H365.088V65.9773H364.611C364.315 66.4545 363.895 67.0568 363.349 67.7841C362.804 68.5 362.026 69.142 361.014 69.7102C360.003 70.267 358.656 70.5455 356.974 70.5455ZM357.52 66.9318C359.134 66.9318 360.497 66.5114 361.611 65.6705C362.724 64.8182 363.571 63.642 364.151 62.142C364.73 60.6307 365.02 58.8864 365.02 56.9091C365.02 54.9545 364.736 53.2443 364.168 51.7784C363.599 50.3011 362.759 49.1534 361.645 48.3352C360.531 47.5057 359.156 47.0909 357.52 47.0909C355.815 47.0909 354.395 47.5284 353.259 48.4034C352.134 49.267 351.287 50.4432 350.719 51.9318C350.162 53.4091 349.884 55.0682 349.884 56.9091C349.884 58.7727 350.168 60.4659 350.736 61.9886C351.315 63.5 352.168 64.7045 353.293 65.6023C354.429 66.4886 355.838 66.9318 357.52 66.9318ZM387.878 70.5455C385.355 70.5455 383.179 69.9886 381.349 68.875C379.531 67.75 378.128 66.1818 377.139 64.1705C376.162 62.1477 375.673 59.7955 375.673 57.1136C375.673 54.4318 376.162 52.0682 377.139 50.0227C378.128 47.9659 379.503 46.3636 381.264 45.2159C383.037 44.0568 385.105 43.4773 387.469 43.4773C388.832 43.4773 390.179 43.7045 391.509 44.1591C392.838 44.6136 394.048 45.3523 395.139 46.375C396.23 47.3864 397.099 48.7273 397.747 50.3977C398.395 52.0682 398.719 54.125 398.719 56.5682V58.2727H378.537V54.7955H394.628C394.628 53.3182 394.332 52 393.741 50.8409C393.162 49.6818 392.332 48.767 391.253 48.0966C390.185 47.4261 388.923 47.0909 387.469 47.0909C385.866 47.0909 384.48 47.4886 383.31 48.2841C382.151 49.0682 381.259 50.0909 380.634 51.3523C380.009 52.6136 379.696 53.9659 379.696 55.4091V57.7273C379.696 59.7045 380.037 61.3807 380.719 62.7557C381.412 64.1193 382.372 65.1591 383.599 65.875C384.827 66.5795 386.253 66.9318 387.878 66.9318C388.935 66.9318 389.889 66.7841 390.741 66.4886C391.605 66.1818 392.349 65.7273 392.974 65.125C393.599 64.5114 394.082 63.75 394.423 62.8409L398.31 63.9318C397.901 65.25 397.213 66.4091 396.247 67.4091C395.281 68.3977 394.088 69.1705 392.668 69.7273C391.247 70.2727 389.651 70.5455 387.878 70.5455ZM404.838 70V43.8182H408.724V47.7727H408.997C409.474 46.4773 410.338 45.4261 411.588 44.6193C412.838 43.8125 414.247 43.4091 415.815 43.4091C416.111 43.4091 416.48 43.4148 416.923 43.4261C417.366 43.4375 417.702 43.4545 417.929 43.4773V47.5682C417.793 47.5341 417.48 47.483 416.991 47.4148C416.514 47.3352 416.009 47.2955 415.474 47.2955C414.202 47.2955 413.065 47.5625 412.065 48.0966C411.077 48.6193 410.293 49.3466 409.713 50.2784C409.145 51.1989 408.861 52.25 408.861 53.4318V70H404.838Z" fill="white"/>
<path d="M129.932 50V51H131.125L130.916 49.8255L129.932 50ZM126.409 50L125.43 50.2014L125.594 51H126.409V50ZM125.315 47.3295L124.483 47.8843L124.488 47.8913L125.315 47.3295ZM123.44 45.3977L122.852 46.2065L122.858 46.2108L122.864 46.215L123.44 45.3977ZM121.011 44.2045L120.726 45.1629V45.1629L121.011 44.2045ZM113.44 45.142L112.912 44.2931L112.909 44.2947L113.44 45.142ZM110.045 49.0767L109.146 48.6393L109.144 48.6433L110.045 49.0767ZM110.045 61.8324L109.144 62.2658L109.146 62.2697L110.045 61.8324ZM113.44 65.767L112.909 66.6144L112.912 66.616L113.44 65.767ZM121.011 66.7045L120.726 65.7462V65.7462L121.011 66.7045ZM123.44 65.5256L124.022 66.3393L124.024 66.3379L123.44 65.5256ZM125.315 63.5795L124.485 63.0225L124.483 63.0248L125.315 63.5795ZM126.409 60.9091V59.9091H125.595L125.43 60.7059L126.409 60.9091ZM129.932 60.9091L130.916 61.0847L131.126 59.9091H129.932V60.9091ZM128.483 64.9006L127.624 64.3881V64.3881L128.483 64.9006ZM125.869 67.8977L126.485 68.6855L126.49 68.6821L125.869 67.8977ZM122.361 69.7585L122.049 68.8085L122.047 68.8091L122.361 69.7585ZM111.608 68.5795L111.076 69.4266V69.4266L111.608 68.5795ZM107.048 63.4091L107.944 62.9649V62.9649L107.048 63.4091ZM107.048 47.5L106.152 47.0558L107.048 47.5ZM122.361 41.1506L122.047 42.0999L122.049 42.1006L122.361 41.1506ZM125.869 43.0256L125.249 43.8099L125.253 43.8134L125.869 43.0256ZM128.483 46.0085L127.624 46.521L127.626 46.524L128.483 46.0085ZM129.932 50V49H126.409V50V51H129.932V50ZM126.409 50L127.389 49.7986C127.157 48.6713 126.746 47.6557 126.143 46.7678L125.315 47.3295L124.488 47.8913C124.927 48.5375 125.245 49.3022 125.43 50.2014L126.409 50ZM125.315 47.3295L126.147 46.7748C125.569 45.9074 124.858 45.1737 124.017 44.5805L123.44 45.3977L122.864 46.215C123.5 46.6634 124.039 47.2176 124.483 47.8842L125.315 47.3295ZM123.44 45.3977L124.029 44.589C123.205 43.99 122.292 43.5427 121.297 43.2462L121.011 44.2045L120.726 45.1629C121.511 45.3967 122.217 45.7449 122.852 46.2065L123.44 45.3977ZM121.011 44.2045L121.297 43.2462C120.31 42.9523 119.286 42.8068 118.227 42.8068V43.8068V44.8068C119.1 44.8068 119.932 44.9265 120.726 45.1629L121.011 44.2045ZM118.227 43.8068V42.8068C116.288 42.8068 114.508 43.2996 112.912 44.2931L113.44 45.142L113.969 45.991C115.233 45.2042 116.644 44.8068 118.227 44.8068V43.8068ZM113.44 45.142L112.909 44.2947C111.308 45.2985 110.058 46.7637 109.146 48.6393L110.045 49.0767L110.945 49.5141C111.718 47.9238 112.732 46.7659 113.971 45.9894L113.44 45.142ZM110.045 49.0767L109.144 48.6433C108.229 50.5467 107.795 52.8302 107.795 55.4545H108.795H109.795C109.795 53.041 110.195 51.0727 110.947 49.5101L110.045 49.0767ZM108.795 55.4545H107.795C107.795 58.0789 108.229 60.3624 109.144 62.2658L110.045 61.8324L110.947 61.399C110.195 59.8364 109.795 57.8681 109.795 55.4545H108.795ZM110.045 61.8324L109.146 62.2697C110.058 64.1454 111.308 65.6106 112.909 66.6144L113.44 65.767L113.971 64.9197C112.732 64.1432 111.718 62.9853 110.945 61.395L110.045 61.8324ZM113.44 65.767L112.912 66.616C114.508 67.6095 116.288 68.1023 118.227 68.1023V67.1023V66.1023C116.644 66.1023 115.233 65.7049 113.969 64.9181L113.44 65.767ZM118.227 67.1023V68.1023C119.286 68.1023 120.31 67.9568 121.297 67.6629L121.011 66.7045L120.726 65.7462C119.932 65.9826 119.1 66.1023 118.227 66.1023V67.1023ZM121.011 66.7045L121.297 67.6629C122.289 67.3674 123.199 66.9267 124.022 66.3393L123.44 65.5256L122.859 64.7118C122.223 65.1661 121.514 65.5114 120.726 65.7462L121.011 66.7045ZM123.44 65.5256L124.024 66.3379C124.861 65.7364 125.57 65 126.147 64.1342L125.315 63.5795L124.483 63.0248C124.038 63.6932 123.497 64.2541 122.857 64.7132L123.44 65.5256ZM125.315 63.5795L126.146 64.1366C126.745 63.2429 127.156 62.2303 127.388 61.1123L126.409 60.9091L125.43 60.7059C125.245 61.5955 124.927 62.3631 124.485 63.0225L125.315 63.5795ZM126.409 60.9091V61.9091H129.932V60.9091V59.9091H126.409V60.9091ZM129.932 60.9091L128.947 60.7335C128.701 62.1137 128.257 63.3279 127.624 64.3881L128.483 64.9006L129.342 65.413C130.11 64.1247 130.632 62.678 130.916 61.0847L129.932 60.9091ZM128.483 64.9006L127.624 64.3881C126.984 65.4611 126.192 66.3672 125.249 67.1134L125.869 67.8977L126.49 68.6821C127.629 67.7806 128.581 66.6885 129.342 65.413L128.483 64.9006ZM125.869 67.8977L125.253 67.1099C124.306 67.8507 123.24 68.4172 122.049 68.8085L122.361 69.7585L122.673 70.7086C124.076 70.2475 125.349 69.5735 126.485 68.6855L125.869 67.8977ZM122.361 69.7585L122.047 68.8091C120.868 69.1991 119.597 69.3977 118.227 69.3977V70.3977V71.3977C119.793 71.3977 121.278 71.1702 122.675 70.7079L122.361 69.7585ZM118.227 70.3977V69.3977C115.917 69.3977 113.898 68.8359 112.139 67.7325L111.608 68.5795L111.076 69.4266C113.181 70.7474 115.575 71.3977 118.227 71.3977V70.3977ZM111.608 68.5795L112.139 67.7325C110.378 66.6275 108.978 65.0504 107.944 62.9649L107.048 63.4091L106.152 63.8533C107.334 66.2374 108.974 68.1073 111.076 69.4266L111.608 68.5795ZM107.048 63.4091L107.944 62.9649C106.919 60.8962 106.386 58.4034 106.386 55.4545H105.386H104.386C104.386 58.642 104.962 61.4522 106.152 63.8533L107.048 63.4091ZM105.386 55.4545H106.386C106.386 52.5057 106.919 50.0128 107.944 47.9442L107.048 47.5L106.152 47.0558C104.962 49.4568 104.386 52.2671 104.386 55.4545H105.386ZM107.048 47.5L107.944 47.9442C108.978 45.8586 110.378 44.2815 112.139 43.1766L111.608 42.3295L111.076 41.4825C108.974 42.8018 107.334 44.6717 106.152 47.0558L107.048 47.5ZM111.608 42.3295L112.139 43.1766C113.898 42.0732 115.917 41.5114 118.227 41.5114V40.5114V39.5114C115.575 39.5114 113.181 40.1617 111.076 41.4825L111.608 42.3295ZM118.227 40.5114V41.5114C119.597 41.5114 120.868 41.71 122.047 42.0999L122.361 41.1506L122.675 40.2012C121.278 39.7389 119.793 39.5114 118.227 39.5114V40.5114ZM122.361 41.1506L122.049 42.1006C123.238 42.4911 124.302 43.061 125.249 43.8099L125.869 43.0256L126.49 42.2412C125.353 41.3424 124.079 40.6623 122.673 40.2005L122.361 41.1506ZM125.869 43.0256L125.253 43.8134C126.195 44.5492 126.985 45.449 127.624 46.521L128.483 46.0085L129.342 45.4961C128.58 44.2195 127.627 43.1308 126.485 42.2378L125.869 43.0256ZM128.483 46.0085L127.626 46.524C128.257 47.5723 128.701 48.7847 128.947 50.1745L129.932 50L130.916 49.8255C130.632 48.2229 130.111 46.7743 129.34 45.493L128.483 46.0085ZM148.92 48.1818V47.1818H147.92V48.1818H148.92ZM152.272 48.1818H153.272V47.1818H152.272V48.1818ZM152.272 70V71H153.272V70H152.272ZM148.92 70H147.92V71H148.92V70ZM148.92 66.3068H149.92V65.3068H148.92V66.3068ZM148.692 66.3068V65.3068H148.053L147.785 65.8878L148.692 66.3068ZM146.306 69.1335L146.885 69.9487L146.89 69.9453L146.306 69.1335ZM138.579 69.3892L138.083 70.2575L138.089 70.2608L138.579 69.3892ZM136.079 66.6619L135.183 67.1064L135.184 67.1091L136.079 66.6619ZM135.17 48.1818V47.1818H134.17V48.1818H135.17ZM138.522 48.1818H139.522V47.1818H138.522V48.1818ZM139.857 65.625L139.129 66.3099L139.132 66.3138L139.857 65.625ZM145.837 66.4062L145.398 65.5079L145.394 65.5099L145.837 66.4062ZM148.025 64.446L147.197 63.8852L147.193 63.8913L148.025 64.446ZM148.92 61.0795H149.92V48.1818H148.92H147.92V61.0795H148.92ZM148.92 48.1818V49.1818H152.272V48.1818V47.1818H148.92V48.1818ZM152.272 48.1818H151.272V70H152.272H153.272V48.1818H152.272ZM152.272 70V69H148.92V70V71H152.272V70ZM148.92 70H149.92V66.3068H148.92H147.92V70H148.92ZM148.92 66.3068V65.3068H148.692V66.3068V67.3068H148.92V66.3068ZM148.692 66.3068L147.785 65.8878C147.352 66.8252 146.675 67.6367 145.722 68.3217L146.306 69.1335L146.89 69.9453C148.097 69.0773 149.01 68.0044 149.6 66.7259L148.692 66.3068ZM146.306 69.1335L145.727 68.3183C144.854 68.9386 143.707 69.2841 142.215 69.2841V70.2841V71.2841C144.019 71.2841 145.599 70.8626 146.885 69.9487L146.306 69.1335ZM142.215 70.2841V69.2841C141.002 69.2841 139.963 69.0202 139.069 68.5176L138.579 69.3892L138.089 70.2608C139.316 70.9513 140.701 71.2841 142.215 71.2841V70.2841ZM138.579 69.3892L139.075 68.521C138.204 68.0234 137.501 67.2703 136.973 66.2147L136.079 66.6619L135.184 67.1091C135.869 68.4778 136.832 69.5429 138.083 70.2574L138.579 69.3892ZM136.079 66.6619L136.975 66.2175C136.457 65.1746 136.17 63.8001 136.17 62.0455H135.17H134.17C134.17 64.0029 134.488 65.7061 135.183 67.1064L136.079 66.6619ZM135.17 62.0455H136.17V48.1818H135.17H134.17V62.0455H135.17ZM135.17 48.1818V49.1818H138.522V48.1818V47.1818H135.17V48.1818ZM138.522 48.1818H137.522V61.8182H138.522H139.522V48.1818H138.522ZM138.522 61.8182H137.522C137.522 63.6035 138.027 65.1379 139.129 66.3099L139.857 65.625L140.586 64.9401C139.907 64.2182 139.522 63.2147 139.522 61.8182H138.522ZM139.857 65.625L139.132 66.3138C140.234 67.4736 141.649 68.0455 143.295 68.0455V67.0455V66.0455C142.157 66.0455 141.28 65.6703 140.582 64.9362L139.857 65.625ZM143.295 67.0455V68.0455C144.304 68.0455 145.302 67.7865 146.281 67.3026L145.837 66.4062L145.394 65.5099C144.649 65.8783 143.952 66.0455 143.295 66.0455V67.0455ZM145.837 66.4062L146.277 67.3046C147.321 66.7936 148.181 66.0148 148.857 65.0007L148.025 64.446L147.193 63.8913C146.695 64.6386 146.096 65.1666 145.398 65.5079L145.837 66.4062ZM148.025 64.446L148.853 65.0069C149.589 63.9196 149.92 62.587 149.92 61.0795H148.92H147.92C147.92 62.2993 147.654 63.2111 147.197 63.8852L148.025 64.446ZM173.866 53.0682L174.139 54.0304L175.148 53.7447L174.815 52.7502L173.866 53.0682ZM170.855 53.9205L169.92 54.2735L170.244 55.1328L171.127 54.8827L170.855 53.9205ZM170.017 52.4574L169.215 53.0549L169.222 53.0637L169.229 53.0724L170.017 52.4574ZM168.54 51.2642L168.987 50.3698V50.3698L168.54 51.2642ZM162.801 51.7188L163.368 52.5425L163.37 52.5413L162.801 51.7188ZM162.389 56.0085L161.766 56.7906V56.7906L162.389 56.0085ZM165.23 57.2159L164.988 58.1861L164.992 58.187L165.23 57.2159ZM168.469 58.0114L168.23 58.9825L168.233 58.9831L168.469 58.0114ZM172.83 60.1847L172.116 60.8848L172.119 60.8883L172.83 60.1847ZM173.185 67.2727L172.377 66.6827L172.374 66.6878L173.185 67.2727ZM160.216 69.0057L160.768 68.172V68.172L160.216 69.0057ZM157.446 64.7727L157.203 63.8026L156.27 64.0359L156.467 64.9775L157.446 64.7727ZM160.628 63.9773L161.596 63.7274L161.348 62.7664L160.385 63.0071L160.628 63.9773ZM162.347 66.6193L161.775 67.4399L161.779 67.4428L162.347 66.6193ZM169.406 66.5057L169.991 67.3166L169.993 67.3155L169.406 66.5057ZM170.003 62.1875L169.302 62.901L169.309 62.9073L170.003 62.1875ZM167.56 61.0227L167.331 61.9963L167.333 61.9967L167.56 61.0227ZM163.923 60.1705L163.693 61.1435L163.695 61.1441L163.923 60.1705ZM159.52 57.9688L158.786 58.6476L158.792 58.6548L159.52 57.9688ZM159.165 50.9375L158.361 50.3426L158.357 50.3479L159.165 50.9375ZM162.02 48.7074L161.613 47.7939L161.61 47.7951L162.02 48.7074ZM171.224 49.3182L170.615 50.1108L170.618 50.1131L171.224 49.3182ZM173.866 53.0682L173.594 52.106L170.583 52.9582L170.855 53.9205L171.127 54.8827L174.139 54.0304L173.866 53.0682ZM170.855 53.9205L171.791 53.5674C171.562 52.9608 171.23 52.3859 170.806 51.8424L170.017 52.4574L169.229 53.0724C169.543 53.4758 169.77 53.8763 169.92 54.2735L170.855 53.9205ZM170.017 52.4574L170.819 51.8599C170.352 51.233 169.729 50.741 168.987 50.3698L168.54 51.2642L168.093 52.1586C168.6 52.4124 168.963 52.7159 169.215 53.0549L170.017 52.4574ZM168.54 51.2642L168.987 50.3698C168.179 49.9659 167.212 49.7955 166.139 49.7955V50.7955V51.7955C167.017 51.7955 167.65 51.9375 168.093 52.1586L168.54 51.2642ZM166.139 50.7955V49.7955C164.649 49.7955 163.325 50.1406 162.232 50.8962L162.801 51.7188L163.37 52.5413C164.057 52.0659 164.959 51.7955 166.139 51.7955V50.7955ZM162.801 51.7188L162.234 50.895C161.127 51.6572 160.48 52.7173 160.48 54.0341H161.48H162.48C162.48 53.4759 162.714 52.9924 163.368 52.5425L162.801 51.7188ZM161.48 54.0341H160.48C160.48 55.1455 160.902 56.1021 161.766 56.7906L162.389 56.0085L163.012 55.2265C162.664 54.9491 162.48 54.5893 162.48 54.0341H161.48ZM162.389 56.0085L161.766 56.7906C162.537 57.4049 163.646 57.8507 164.988 58.1861L165.23 57.2159L165.473 56.2458C164.238 55.9372 163.454 55.5781 163.012 55.2265L162.389 56.0085ZM165.23 57.2159L164.992 58.187L168.23 58.9825L168.469 58.0114L168.707 57.0402L165.469 56.2448L165.23 57.2159ZM168.469 58.0114L168.233 58.9831C170.082 59.432 171.338 60.0915 172.116 60.8848L172.83 60.1847L173.544 59.4845C172.409 58.327 170.757 57.5377 168.705 57.0396L168.469 58.0114ZM172.83 60.1847L172.119 60.8883C172.867 61.6435 173.264 62.6244 173.264 63.9205H174.264H175.264C175.264 62.1673 174.705 60.6577 173.54 59.481L172.83 60.1847ZM174.264 63.9205H173.264C173.264 64.964 172.969 65.8736 172.377 66.6827L173.185 67.2727L173.992 67.8627C174.84 66.7021 175.264 65.3769 175.264 63.9205H174.264ZM173.185 67.2727L172.374 66.6878C171.782 67.5085 170.937 68.1811 169.796 68.6885L170.202 69.6023L170.608 70.5161C172.023 69.8871 173.167 69.0067 173.996 67.8576L173.185 67.2727ZM170.202 69.6023L169.796 68.6885C168.669 69.1891 167.326 69.4545 165.741 69.4545V70.4545V71.4545C167.547 71.4545 169.177 71.1518 170.608 70.5161L170.202 69.6023ZM165.741 70.4545V69.4545C163.659 69.4545 162.023 69.0034 160.768 68.172L160.216 69.0057L159.664 69.8394C161.325 70.9398 163.373 71.4545 165.741 71.4545V70.4545ZM160.216 69.0057L160.768 68.172C159.549 67.3643 158.764 66.1903 158.425 64.568L157.446 64.7727L156.467 64.9775C156.904 67.0673 157.966 68.7152 159.664 69.8394L160.216 69.0057ZM157.446 64.7727L157.689 65.7429L160.87 64.9474L160.628 63.9773L160.385 63.0071L157.203 63.8026L157.446 64.7727ZM160.628 63.9773L159.66 64.2271C160.011 65.5889 160.702 66.6921 161.775 67.4398L162.347 66.6193L162.918 65.7988C162.306 65.3723 161.851 64.7141 161.596 63.7274L160.628 63.9773ZM162.347 66.6193L161.779 67.4428C162.845 68.177 164.174 68.5 165.685 68.5V67.5V66.5C164.449 66.5 163.553 66.2358 162.914 65.7958L162.347 66.6193ZM165.685 67.5V68.5C167.379 68.5 168.849 68.1412 169.991 67.3166L169.406 66.5057L168.821 65.6948C168.127 66.1959 167.115 66.5 165.685 66.5V67.5ZM169.406 66.5057L169.993 67.3155C171.116 66.5021 171.798 65.4215 171.798 64.0909H170.798H169.798C169.798 64.6353 169.553 65.1646 168.82 65.6959L169.406 66.5057ZM170.798 64.0909H171.798C171.798 63.0705 171.429 62.1734 170.697 61.4677L170.003 62.1875L169.309 62.9073C169.637 63.2243 169.798 63.5962 169.798 64.0909H170.798ZM170.003 62.1875L170.704 61.4741C169.991 60.7743 168.978 60.3261 167.786 60.0488L167.56 61.0227L167.333 61.9967C168.338 62.2307 168.954 62.559 169.302 62.9009L170.003 62.1875ZM167.56 61.0227L167.788 60.0491L164.151 59.1968L163.923 60.1705L163.695 61.1441L167.331 61.9963L167.56 61.0227ZM163.923 60.1705L164.154 59.1974C162.256 58.7478 160.999 58.0802 160.247 57.2827L159.52 57.9688L158.792 58.6548C159.915 59.846 161.594 60.6462 163.693 61.1435L163.923 60.1705ZM159.52 57.9688L160.254 57.2899C159.515 56.4903 159.128 55.4863 159.128 54.2045H158.128H157.128C157.128 55.9342 157.669 57.4397 158.786 58.6476L159.52 57.9688ZM158.128 54.2045H159.128C159.128 53.1741 159.413 52.294 159.972 51.5271L159.165 50.9375L158.357 50.3479C157.534 51.4749 157.128 52.7728 157.128 54.2045H158.128ZM159.165 50.9375L159.969 51.5323C160.556 50.7391 161.364 50.0978 162.429 49.6197L162.02 48.7074L161.61 47.7951C160.27 48.3966 159.175 49.242 158.361 50.3427L159.165 50.9375ZM162.02 48.7074L162.427 49.6209C163.492 49.1464 164.724 48.8977 166.139 48.8977V47.8977V46.8977C164.487 46.8977 162.972 47.1889 161.613 47.7939L162.02 48.7074ZM166.139 47.8977V48.8977C168.162 48.8977 169.615 49.342 170.615 50.1108L171.224 49.3182L171.834 48.5256C170.371 47.4004 168.434 46.8977 166.139 46.8977V47.8977ZM171.224 49.3182L170.618 50.1131C171.691 50.9325 172.458 52.0127 172.918 53.3861L173.866 53.0682L174.815 52.7502C174.234 51.0176 173.239 49.5978 171.831 48.5233L171.224 49.3182ZM188.799 48.1818H189.799V47.1818H188.799V48.1818ZM188.799 51.0227V52.0227H189.799V51.0227H188.799ZM177.492 51.0227H176.492V52.0227H177.492V51.0227ZM177.492 48.1818V47.1818H176.492V48.1818H177.492ZM180.788 42.9545V41.9545H179.788V42.9545H180.788ZM184.14 42.9545H185.14V41.9545H184.14V42.9545ZM184.552 65.8807L183.687 66.3824L183.693 66.3927L183.699 66.4028L184.552 65.8807ZM185.631 66.8182L185.285 67.7562L185.297 67.7607L185.309 67.7648L185.631 66.8182ZM187.947 66.9886L188.105 67.9761L188.124 67.973L188.143 67.9692L187.947 66.9886ZM188.515 66.875L189.49 66.6542L189.275 65.7032L188.319 65.8944L188.515 66.875ZM189.197 69.8864L189.548 70.8227L190.365 70.5164L190.172 69.6655L189.197 69.8864ZM188.245 70.142L188.04 69.1633L188.029 69.1655L188.019 69.168L188.245 70.142ZM183.913 69.6733L183.5 70.5843L183.504 70.5859L183.913 69.6733ZM181.668 67.8125L180.851 68.3885L180.855 68.3946L181.668 67.8125ZM188.799 48.1818H187.799V51.0227H188.799H189.799V48.1818H188.799ZM188.799 51.0227V50.0227H177.492V51.0227V52.0227H188.799V51.0227ZM177.492 51.0227H178.492V48.1818H177.492H176.492V51.0227H177.492ZM177.492 48.1818V49.1818H188.799V48.1818V47.1818H177.492V48.1818ZM180.788 42.9545V43.9545H184.14V42.9545V41.9545H180.788V42.9545ZM184.14 42.9545H183.14V63.75H184.14H185.14V42.9545H184.14ZM184.14 63.75H183.14C183.14 64.7609 183.281 65.6822 183.687 66.3824L184.552 65.8807L185.417 65.379C185.274 65.1322 185.14 64.6331 185.14 63.75H184.14ZM184.552 65.8807L183.699 66.4028C184.079 67.0241 184.604 67.5045 185.285 67.7562L185.631 66.8182L185.978 65.8802C185.788 65.8099 185.593 65.6653 185.405 65.3585L184.552 65.8807ZM185.631 66.8182L185.309 67.7648C185.863 67.9533 186.441 68.0455 187.038 68.0455V67.0455V66.0455C186.65 66.0455 186.29 65.9861 185.954 65.8715L185.631 66.8182ZM187.038 67.0455V68.0455C187.435 68.0455 187.796 68.0255 188.105 67.9761L187.947 66.9886L187.789 66.0012C187.624 66.0275 187.379 66.0455 187.038 66.0455V67.0455ZM187.947 66.9886L188.143 67.9692C188.38 67.9219 188.569 67.884 188.711 67.8556L188.515 66.875L188.319 65.8944C188.177 65.9228 187.987 65.9607 187.751 66.0081L187.947 66.9886ZM188.515 66.875L187.54 67.0958L188.221 70.1072L189.197 69.8864L190.172 69.6655L189.49 66.6542L188.515 66.875ZM189.197 69.8864L188.846 68.95C188.688 69.0092 188.427 69.0822 188.04 69.1633L188.245 70.142L188.45 71.1208C188.877 71.0314 189.251 70.934 189.548 70.8227L189.197 69.8864ZM188.245 70.142L188.019 69.168C187.712 69.2392 187.279 69.2841 186.697 69.2841V70.2841V71.2841C187.364 71.2841 187.963 71.2343 188.472 71.1161L188.245 70.142ZM186.697 70.2841V69.2841C185.898 69.2841 185.109 69.1133 184.321 68.7607L183.913 69.6733L183.504 70.5859C184.535 71.0477 185.602 71.2841 186.697 71.2841V70.2841ZM183.913 69.6733L184.325 68.7623C183.592 68.4304 182.98 67.9264 182.481 67.2304L181.668 67.8125L180.855 68.3946C181.55 69.3653 182.434 70.1018 183.5 70.5843L183.913 69.6733ZM181.668 67.8125L182.486 67.2365C182.044 66.6091 181.788 65.7728 181.788 64.6591H180.788H179.788C179.788 66.0833 180.119 67.3492 180.851 68.3885L181.668 67.8125ZM180.788 64.6591H181.788V42.9545H180.788H179.788V64.6591H180.788ZM197.286 69.0483L196.75 69.8926L196.753 69.8942L197.286 69.0483ZM193.82 65.1136L192.922 65.5528L192.924 65.5568L193.82 65.1136ZM193.82 53.2528L192.923 52.8116L192.921 52.8157L193.82 53.2528ZM197.286 49.304L196.753 48.4581L196.75 48.4596L197.286 49.304ZM207.641 49.304L207.106 50.1483L207.108 50.1499L207.641 49.304ZM211.107 53.2528L210.208 53.69L210.21 53.694L211.107 53.2528ZM211.107 65.1136L210.211 64.6705L210.209 64.6745L211.107 65.1136ZM207.641 69.0483L207.108 68.2024L207.106 68.204L207.641 69.0483ZM206.164 66.2926L205.542 65.5095V65.5095L206.164 66.2926ZM208.309 63.267L209.246 63.6151V63.6151L208.309 63.267ZM208.309 55.1278L209.247 54.7821V54.7821L208.309 55.1278ZM206.164 52.0739L206.791 51.2945V51.2945L206.164 52.0739ZM198.778 52.0739L198.151 51.2945H198.151L198.778 52.0739ZM196.633 55.1278L195.694 54.7821V54.7821L196.633 55.1278ZM196.633 63.267L195.695 63.6151V63.6151L196.633 63.267ZM198.778 66.2926L199.4 65.5095V65.5095L198.778 66.2926ZM202.471 70.4545V69.4545C200.667 69.4545 199.128 69.0274 197.82 68.2024L197.286 69.0483L196.753 69.8942C198.418 70.9442 200.336 71.4545 202.471 71.4545V70.4545ZM197.286 69.0483L197.822 68.204C196.511 67.372 195.475 66.2046 194.717 64.6705L193.82 65.1136L192.924 65.5568C193.832 67.3939 195.107 68.8496 196.75 69.8926L197.286 69.0483ZM193.82 65.1136L194.719 64.6745C193.974 63.1505 193.585 61.3364 193.585 59.2045H192.585H191.585C191.585 61.5803 192.019 63.7056 192.922 65.5528L193.82 65.1136ZM192.585 59.2045H193.585C193.585 57.0525 193.974 55.2236 194.72 53.69L193.82 53.2528L192.921 52.8157C192.019 54.6722 191.585 56.8111 191.585 59.2045H192.585ZM193.82 53.2528L194.718 53.694C195.477 52.1504 196.512 50.9794 197.822 50.1483L197.286 49.304L196.75 48.4596C195.105 49.5035 193.831 50.9651 192.923 52.8117L193.82 53.2528ZM197.286 49.304L197.82 50.1499C199.128 49.3249 200.667 48.8977 202.471 48.8977V47.8977V46.8977C200.336 46.8977 198.418 47.4081 196.753 48.4581L197.286 49.304ZM202.471 47.8977V48.8977C204.275 48.8977 205.808 49.3249 207.106 50.1483L207.641 49.304L208.177 48.4596C206.52 47.4081 204.606 46.8977 202.471 46.8977V47.8977ZM207.641 49.304L207.108 50.1499C208.426 50.9807 209.459 52.15 210.208 53.69L211.107 53.2528L212.007 52.8157C211.107 50.9655 209.831 49.5023 208.175 48.4581L207.641 49.304ZM211.107 53.2528L210.21 53.694C210.963 55.2267 211.357 57.0541 211.357 59.2045H212.357H213.357C213.357 56.8096 212.918 54.6691 212.005 52.8117L211.107 53.2528ZM212.357 59.2045H211.357C211.357 61.3348 210.964 63.1474 210.211 64.6705L211.107 65.1136L212.004 65.5568C212.917 63.7087 213.357 61.5819 213.357 59.2045H212.357ZM211.107 65.1136L210.209 64.6745C209.461 66.205 208.427 67.3707 207.108 68.2024L207.641 69.0483L208.175 69.8942C209.829 68.8509 211.106 67.3935 212.006 65.5528L211.107 65.1136ZM207.641 69.0483L207.106 68.204C205.808 69.0274 204.275 69.4545 202.471 69.4545V70.4545V71.4545C204.606 71.4545 206.52 70.9442 208.177 69.8926L207.641 69.0483ZM202.471 67.4432V68.4432C204.143 68.4432 205.608 68.0113 206.786 67.0757L206.164 66.2926L205.542 65.5095C204.788 66.1081 203.791 66.4432 202.471 66.4432V67.4432ZM206.164 66.2926L206.786 67.0757C207.906 66.186 208.724 65.0218 209.246 63.6151L208.309 63.267L207.371 62.919C206.966 64.0123 206.354 64.8651 205.542 65.5095L206.164 66.2926ZM208.309 63.267L209.246 63.6151C209.756 62.2437 210.005 60.7705 210.005 59.2045H209.005H208.005C208.005 60.5552 207.79 61.7904 207.371 62.919L208.309 63.267ZM209.005 59.2045H210.005C210.005 57.6385 209.755 56.1615 209.247 54.7821L208.309 55.1278L207.371 55.4735C207.79 56.6131 208.005 57.854 208.005 59.2045H209.005ZM208.309 55.1278L209.247 54.7821C208.726 53.3671 207.91 52.194 206.791 51.2945L206.164 52.0739L205.538 52.8532C206.35 53.5068 206.964 54.3696 207.371 55.4735L208.309 55.1278ZM206.164 52.0739L206.791 51.2945C205.612 50.3473 204.146 49.9091 202.471 49.9091V50.9091V51.9091C203.788 51.9091 204.784 52.2474 205.538 52.8532L206.164 52.0739ZM202.471 50.9091V49.9091C200.796 49.9091 199.329 50.3473 198.151 51.2945L198.778 52.0739L199.404 52.8532C200.158 52.2474 201.154 51.9091 202.471 51.9091V50.9091ZM198.778 52.0739L198.151 51.2945C197.032 52.194 196.216 53.3671 195.694 54.7821L196.633 55.1278L197.571 55.4735C197.978 54.3696 198.591 53.5068 199.404 52.8532L198.778 52.0739ZM196.633 55.1278L195.694 54.7821C195.186 56.1615 194.937 57.6385 194.937 59.2045H195.937H196.937C196.937 57.854 197.151 56.6131 197.571 55.4735L196.633 55.1278ZM195.937 59.2045H194.937C194.937 60.7705 195.186 62.2437 195.695 63.6151L196.633 63.267L197.57 62.919C197.151 61.7904 196.937 60.5552 196.937 59.2045H195.937ZM196.633 63.267L195.695 63.6151C196.218 65.0218 197.035 66.186 198.156 67.0757L198.778 66.2926L199.4 65.5095C198.588 64.8651 197.976 64.0123 197.57 62.919L196.633 63.267ZM198.778 66.2926L198.156 67.0757C199.334 68.0113 200.799 68.4432 202.471 68.4432V67.4432V66.4432C201.151 66.4432 200.153 66.1081 199.4 65.5095L198.778 66.2926ZM220.898 69.0767L220.343 69.9088L220.347 69.9114L220.898 69.0767ZM217.631 65.1562L216.723 65.5769L216.724 65.5789L217.631 65.1562ZM217.631 53.1818L216.724 52.7592V52.7592L217.631 53.1818ZM220.912 49.2756L220.364 48.4392V48.4392L220.912 49.2756ZM229.136 48.608L228.638 49.475L228.65 49.4816L229.136 48.608ZM231.04 50.1989L230.232 50.7886L230.237 50.7958L230.243 50.803L231.04 50.1989ZM232.077 51.6477L231.238 52.1927L231.534 52.6477H232.077V51.6477ZM232.361 51.6477V52.6477H233.361V51.6477H232.361ZM232.361 40.9091V39.9091H231.361V40.9091H232.361ZM235.713 40.9091H236.713V39.9091H235.713V40.9091ZM235.713 70V71H236.713V70H235.713ZM232.474 70H231.474V71H232.474V70ZM232.474 66.6477H233.474V65.6477H232.474V66.6477ZM232.077 66.6477V65.6477H231.52L231.226 66.1214L232.077 66.6477ZM231.026 68.1534L231.821 68.7595L231.826 68.7534L231.026 68.1534ZM229.08 69.7585L229.562 70.6346L229.569 70.6304L229.08 69.7585ZM229.577 66.392L230.179 67.1901L230.184 67.1862L229.577 66.392ZM231.693 63.4517L232.626 63.8121L232.627 63.8097L231.693 63.4517ZM231.707 54.8153L230.774 55.1743L230.775 55.1767L231.707 54.8153ZM229.605 51.946L229.008 52.748L229.013 52.7519L229.605 51.946ZM222.616 52.0028L223.225 52.7961L223.227 52.7952L222.616 52.0028ZM220.5 54.9432L219.566 54.5866L219.564 54.5905L220.5 54.9432ZM220.514 63.3239L219.577 63.6735L219.58 63.6819L220.514 63.3239ZM222.645 66.3352L222.021 67.1169L222.03 67.1237L222.645 66.3352ZM225.713 70.4545V69.4545C224.072 69.4545 222.662 69.043 221.448 68.242L220.898 69.0767L220.347 69.9114C221.917 70.9475 223.717 71.4545 225.713 71.4545V70.4545ZM220.898 69.0767L221.452 68.2447C220.23 67.4294 219.254 66.2722 218.537 64.7336L217.631 65.1562L216.724 65.5789C217.579 67.4115 218.782 68.868 220.343 69.9088L220.898 69.0767ZM217.631 65.1562L218.538 64.7356C217.826 63.1997 217.452 61.3466 217.452 59.1477H216.452H215.452C215.452 61.5701 215.864 63.7227 216.723 65.5769L217.631 65.1562ZM216.452 59.1477H217.452C217.452 56.969 217.825 55.1306 218.537 53.6044L217.631 53.1818L216.724 52.7592C215.864 54.6042 215.452 56.7432 215.452 59.1477H216.452ZM217.631 53.1818L218.537 53.6044C219.253 52.0683 220.231 50.9176 221.46 50.1119L220.912 49.2756L220.364 48.4392C218.79 49.4707 217.58 50.9242 216.724 52.7592L217.631 53.1818ZM220.912 49.2756L221.46 50.1119C222.683 49.3104 224.108 48.8977 225.77 48.8977V47.8977V46.8977C223.758 46.8977 221.944 47.4037 220.364 48.4392L220.912 49.2756ZM225.77 47.8977V48.8977C227.096 48.8977 228.023 49.1214 228.638 49.475L229.136 48.608L229.635 47.7409C228.602 47.1476 227.285 46.8977 225.77 46.8977V47.8977ZM229.136 48.608L228.65 49.4816C229.392 49.895 229.903 50.3375 230.232 50.7886L231.04 50.1989L231.847 49.6092C231.306 48.867 230.547 48.2489 229.623 47.7343L229.136 48.608ZM231.04 50.1989L230.243 50.803C230.681 51.3812 231.011 51.8427 231.238 52.1927L232.077 51.6477L232.915 51.1027C232.65 50.6952 232.288 50.1908 231.837 49.5948L231.04 50.1989ZM232.077 51.6477V52.6477H232.361V51.6477V50.6477H232.077V51.6477ZM232.361 51.6477H233.361V40.9091H232.361H231.361V51.6477H232.361ZM232.361 40.9091V41.9091H235.713V40.9091V39.9091H232.361V40.9091ZM235.713 40.9091H234.713V70H235.713H236.713V40.9091H235.713ZM235.713 70V69H232.474V70V71H235.713V70ZM232.474 70H233.474V66.6477H232.474H231.474V70H232.474ZM232.474 66.6477V65.6477H232.077V66.6477V67.6477H232.474V66.6477ZM232.077 66.6477L231.226 66.1214C231.002 66.4833 230.672 66.9585 230.226 67.5534L231.026 68.1534L231.826 68.7534C232.289 68.1362 232.659 67.6077 232.927 67.1741L232.077 66.6477ZM231.026 68.1534L230.23 67.5474C229.878 68.009 229.347 68.4615 228.59 68.8867L229.08 69.7585L229.569 70.6304C230.498 70.1086 231.264 69.491 231.821 68.7595L231.026 68.1534ZM229.08 69.7585L228.597 68.8825C227.954 69.2364 227.018 69.4545 225.713 69.4545V70.4545V71.4545C227.211 71.4545 228.519 71.2086 229.562 70.6345L229.08 69.7585ZM226.168 67.4432V68.4432C227.694 68.4432 229.051 68.0417 230.179 67.1901L229.577 66.392L228.974 65.594C228.246 66.1439 227.33 66.4432 226.168 66.4432V67.4432ZM229.577 66.392L230.184 67.1862C231.279 66.3484 232.087 65.2081 232.626 63.8121L231.693 63.4517L230.76 63.0913C230.334 64.1953 229.73 65.0152 228.969 65.5979L229.577 66.392ZM231.693 63.4517L232.627 63.8097C233.162 62.4138 233.418 60.8348 233.418 59.0909H232.418H231.418C231.418 60.6425 231.19 61.9707 230.759 63.0937L231.693 63.4517ZM232.418 59.0909H233.418C233.418 57.3675 233.167 55.815 232.64 54.4539L231.707 54.8153L230.775 55.1767C231.194 56.2588 231.418 57.5567 231.418 59.0909H232.418ZM231.707 54.8153L232.641 54.4564C232.109 53.0734 231.301 51.951 230.197 51.1401L229.605 51.946L229.013 52.7519C229.765 53.3047 230.359 54.0952 230.774 55.1743L231.707 54.8153ZM229.605 51.946L230.202 51.1441C229.073 50.3023 227.707 49.9091 226.168 49.9091V50.9091V51.9091C227.356 51.9091 228.282 52.2071 229.008 52.748L229.605 51.946ZM226.168 50.9091V49.9091C224.57 49.9091 223.16 50.3226 222.006 51.2105L222.616 52.0028L223.227 52.7952C223.967 52.2248 224.925 51.9091 226.168 51.9091V50.9091ZM222.616 52.0028L222.008 51.2096C220.906 52.0554 220.097 53.1951 219.566 54.5866L220.5 54.9432L221.434 55.2998C221.85 54.2102 222.452 53.3896 223.225 52.7961L222.616 52.0028ZM220.5 54.9432L219.564 54.5905C219.051 55.9513 218.804 57.456 218.804 59.0909H219.804H220.804C220.804 57.6576 221.021 56.3972 221.436 55.2959L220.5 54.9432ZM219.804 59.0909H218.804C218.804 60.746 219.056 62.2776 219.577 63.6735L220.514 63.3239L221.451 62.9743C221.025 61.8323 220.804 60.5419 220.804 59.0909H219.804ZM220.514 63.3239L219.58 63.6819C220.119 65.0865 220.928 66.2443 222.021 67.1169L222.645 66.3352L223.269 65.5536C222.487 64.9299 221.875 64.0802 221.448 62.9658L220.514 63.3239ZM222.645 66.3352L222.03 67.1237C223.181 68.0215 224.582 68.4432 226.168 68.4432V67.4432V66.4432C224.95 66.4432 224.003 66.1262 223.26 65.5467L222.645 66.3352ZM242.957 78.0398L243.165 77.0617L243.156 77.0595L243.145 77.0576L242.957 78.0398ZM242.034 77.7841L241.073 77.5069L240.843 78.3064L241.587 78.6785L242.034 77.7841ZM242.886 74.8295L243.134 73.8607L242.194 73.6203L241.926 74.5524L242.886 74.8295ZM245.045 75.0568L244.955 74.0609V74.0609L245.045 75.0568ZM246.707 74.2188L246 73.5116L245.993 73.5184L245.987 73.5254L246.707 74.2188ZM248.057 71.8182L248.995 72.1631L248.996 72.1624L248.057 71.8182ZM248.682 70.1136L249.621 70.4579L249.747 70.1131L249.62 69.7684L248.682 70.1136ZM240.614 48.1818V47.1818H239.18L239.675 48.5271L240.614 48.1818ZM244.25 48.1818L245.195 47.8545L244.962 47.1818H244.25V48.1818ZM250.273 65.5682L249.328 65.8955L249.561 66.5682H250.273V65.5682ZM250.5 65.5682V66.5682H251.212L251.445 65.8955L250.5 65.5682ZM256.523 48.1818V47.1818H255.811L255.578 47.8545L256.523 48.1818ZM260.159 48.1818L261.097 48.5292L261.596 47.1818H260.159V48.1818ZM250.898 73.1818L249.96 72.8344L249.96 72.835L250.898 73.1818ZM249.349 75.9801L248.581 75.3399L248.577 75.3447L249.349 75.9801ZM247.205 77.642L246.8 76.7273L246.796 76.7291L247.205 77.642ZM244.477 78.1818V77.1818C243.963 77.1818 243.528 77.1387 243.165 77.0617L242.957 78.0398L242.749 79.0179C243.277 79.1302 243.856 79.1818 244.477 79.1818V78.1818ZM242.957 78.0398L243.145 77.0576C242.939 77.0182 242.779 76.9813 242.66 76.9482C242.6 76.9318 242.556 76.9175 242.523 76.9061C242.49 76.8942 242.478 76.8881 242.481 76.8897L242.034 77.7841L241.587 78.6785C241.893 78.8317 242.324 78.9366 242.769 79.0219L242.957 78.0398ZM242.034 77.7841L242.995 78.0613L243.847 75.1067L242.886 74.8295L241.926 74.5524L241.073 77.5069L242.034 77.7841ZM242.886 74.8295L242.639 75.7983C243.528 76.0259 244.366 76.1227 245.136 76.0527L245.045 75.0568L244.955 74.0609C244.475 74.1046 243.873 74.0498 243.134 73.8607L242.886 74.8295ZM245.045 75.0568L245.136 76.0527C246.027 75.9717 246.798 75.5669 247.428 74.9121L246.707 74.2188L245.987 73.5254C245.651 73.8744 245.314 74.0283 244.955 74.0609L245.045 75.0568ZM246.707 74.2188L247.414 74.9259C248.057 74.2833 248.568 73.3252 248.995 72.1631L248.057 71.8182L247.118 71.4732C246.731 72.5271 246.343 73.1694 246 73.5116L246.707 74.2188ZM248.057 71.8182L248.996 72.1624L249.621 70.4579L248.682 70.1136L247.743 69.7694L247.118 71.4739L248.057 71.8182ZM248.682 70.1136L249.62 69.7684L241.552 47.8366L240.614 48.1818L239.675 48.5271L247.743 70.4589L248.682 70.1136ZM240.614 48.1818V49.1818H244.25V48.1818V47.1818H240.614V48.1818ZM244.25 48.1818L243.305 48.5091L249.328 65.8955L250.273 65.5682L251.218 65.2409L245.195 47.8545L244.25 48.1818ZM250.273 65.5682V66.5682H250.5V65.5682V64.5682H250.273V65.5682ZM250.5 65.5682L251.445 65.8955L257.468 48.5091L256.523 48.1818L255.578 47.8545L249.555 65.2409L250.5 65.5682ZM256.523 48.1818V49.1818H260.159V48.1818V47.1818H256.523V48.1818ZM260.159 48.1818L259.221 47.8344L249.96 72.8344L250.898 73.1818L251.835 73.5292L261.097 48.5292L260.159 48.1818ZM250.898 73.1818L249.96 72.835C249.573 73.8807 249.108 74.7074 248.581 75.3399L249.349 75.9801L250.118 76.6203C250.822 75.7755 251.389 74.7367 251.836 73.5286L250.898 73.1818ZM249.349 75.9801L248.577 75.3447C248.052 75.9831 247.46 76.436 246.8 76.7274L247.205 77.642L247.609 78.5567C248.578 78.1284 249.416 77.4733 250.122 76.6155L249.349 75.9801ZM247.205 77.642L246.796 76.7291C246.138 77.0236 245.371 77.1818 244.477 77.1818V78.1818V79.1818C245.61 79.1818 246.662 78.9802 247.613 78.555L247.205 77.642ZM265.743 70H264.743V71H265.743V70ZM265.743 35.0909V34.0909H264.743V35.0909H265.743ZM283.964 36.3523L283.495 37.235L283.5 37.2376L283.964 36.3523ZM287.493 39.7102L286.616 40.1911L286.618 40.1941L287.493 39.7102ZM287.851 48.0795L286.973 47.6L286.969 47.6079L287.851 48.0795ZM285.771 50.3977L285.222 49.5623L285.217 49.5657L285.771 50.3977ZM282.993 51.6591L282.73 50.6943L281.993 50.8953V51.6591H282.993ZM282.993 52H281.993V52.9382L282.929 52.998L282.993 52ZM286.214 53.125L285.68 53.9705V53.9705L286.214 53.125ZM288.822 65.4489L289.692 65.9435V65.9435L288.822 65.4489ZM285.055 68.7727L284.625 67.8701V67.8701L285.055 68.7727ZM269.97 66.25H268.97V67.25H269.97V66.25ZM284.237 64.6477L284.915 65.3831L284.915 65.3828L284.237 64.6477ZM285.089 57.4545L284.23 57.9662L284.233 57.9705L285.089 57.4545ZM282.516 55.0341L282.033 55.91L282.04 55.9137L282.516 55.0341ZM269.97 54.1136V53.1136H268.97V54.1136H269.97ZM269.97 50.4318H268.97V51.4318H269.97V50.4318ZM281.254 49.6818L280.819 48.7815L280.815 48.7834L281.254 49.6818ZM283.709 47.5682L282.88 47.0087L282.875 47.0159L283.709 47.5682ZM283.027 40.4602L282.316 41.1636L282.32 41.1673L283.027 40.4602ZM269.97 38.8409V37.8409H268.97V38.8409H269.97ZM265.743 70H266.743V35.0909H265.743H264.743V70H265.743ZM265.743 35.0909V36.0909H277.947V35.0909V34.0909H265.743V35.0909ZM277.947 35.0909V36.0909C280.271 36.0909 282.102 36.4937 283.495 37.235L283.964 36.3523L284.434 35.4696C282.668 34.529 280.487 34.0909 277.947 34.0909V35.0909ZM283.964 36.3523L283.5 37.2376C284.925 37.9862 285.948 38.9731 286.616 40.1911L287.493 39.7102L288.37 39.2294C287.492 37.6292 286.163 36.3774 284.429 35.4669L283.964 36.3523ZM287.493 39.7102L286.618 40.1941C287.303 41.4337 287.652 42.8166 287.652 44.3636H288.652H289.652C289.652 42.5016 289.228 40.7822 288.368 39.2264L287.493 39.7102ZM288.652 44.3636H287.652C287.652 45.7518 287.404 46.812 286.973 47.6L287.851 48.0795L288.728 48.5591C289.366 47.3926 289.652 45.9755 289.652 44.3636H288.652ZM287.851 48.0795L286.969 47.6079C286.519 48.449 285.936 49.0924 285.222 49.5623L285.771 50.3977L286.321 51.2331C287.334 50.5667 288.137 49.6646 288.733 48.5512L287.851 48.0795ZM285.771 50.3977L285.217 49.5657C284.455 50.0735 283.627 50.4495 282.73 50.6943L282.993 51.6591L283.256 52.6239C284.358 52.3232 285.383 51.8583 286.326 51.2298L285.771 50.3977ZM282.993 51.6591H281.993V52H282.993H283.993V51.6591H282.993ZM282.993 52L282.929 52.998C283.801 53.0536 284.715 53.3608 285.68 53.9705L286.214 53.125L286.748 52.2795C285.555 51.5255 284.321 51.0828 283.057 51.002L282.993 52ZM286.214 53.125L285.68 53.9705C286.602 54.5528 287.398 55.4011 288.056 56.553L288.925 56.0568L289.793 55.5607C288.997 54.1671 287.986 53.0609 286.748 52.2795L286.214 53.125ZM288.925 56.0568L288.056 56.553C288.678 57.6406 289.016 59.0165 289.016 60.7273H290.016H291.016C291.016 58.7562 290.626 57.0185 289.793 55.5607L288.925 56.0568ZM290.016 60.7273H289.016C289.016 62.3196 288.656 63.7204 287.953 64.9542L288.822 65.4489L289.692 65.9435C290.58 64.3819 291.016 62.635 291.016 60.7273H290.016ZM288.822 65.4489L287.953 64.9542C287.276 66.1438 286.191 67.1235 284.625 67.8701L285.055 68.7727L285.486 69.6754C287.352 68.7856 288.778 67.5493 289.692 65.9435L288.822 65.4489ZM285.055 68.7727L284.625 67.8701C283.09 68.6021 281.019 69 278.357 69V70V71C281.194 71 283.589 70.5797 285.486 69.6754L285.055 68.7727ZM278.357 70V69H265.743V70V71H278.357V70ZM269.97 66.25V67.25H278.357V66.25V65.25H269.97V66.25ZM278.357 66.25V67.25C281.196 67.25 283.475 66.7103 284.915 65.3831L284.237 64.6477L283.56 63.9124C282.682 64.7215 281.039 65.25 278.357 65.25V66.25ZM284.237 64.6477L284.915 65.3828C286.282 64.1221 286.993 62.5524 286.993 60.7273H285.993H284.993C284.993 61.9704 284.533 63.0143 283.559 63.9127L284.237 64.6477ZM285.993 60.7273H286.993C286.993 59.366 286.643 58.0964 285.946 56.9386L285.089 57.4545L284.233 57.9705C284.74 58.8127 284.993 59.7249 284.993 60.7273H285.993ZM285.089 57.4545L285.949 56.9429C285.247 55.7648 284.251 54.8358 282.991 54.1545L282.516 55.0341L282.04 55.9137C283.007 56.4369 283.727 57.1215 284.23 57.9662L285.089 57.4545ZM282.516 55.0341L282.998 54.1583C281.71 53.4485 280.219 53.1136 278.561 53.1136V54.1136V55.1136C279.948 55.1136 281.094 55.3924 282.033 55.9099L282.516 55.0341ZM278.561 54.1136V53.1136H269.97V54.1136V55.1136H278.561V54.1136ZM269.97 54.1136H268.97V66.25H269.97H270.97V54.1136H269.97ZM269.97 50.4318V51.4318H277.811V50.4318V49.4318H269.97V50.4318ZM277.811 50.4318V51.4318C279.218 51.4318 280.519 51.1546 281.693 50.5802L281.254 49.6818L280.815 48.7834C279.944 49.209 278.95 49.4318 277.811 49.4318V50.4318ZM281.254 49.6818L281.69 50.5821C282.876 50.0083 283.836 49.1873 284.542 48.1205L283.709 47.5682L282.875 47.0159C282.377 47.7672 281.7 48.3553 280.819 48.7815L281.254 49.6818ZM283.709 47.5682L284.538 48.1277C285.276 47.034 285.629 45.7657 285.629 44.3636H284.629H283.629C283.629 45.4161 283.369 46.2842 282.88 47.0087L283.709 47.5682ZM284.629 44.3636H285.629C285.629 42.569 284.993 41.0121 283.734 39.7531L283.027 40.4602L282.32 41.1673C283.197 42.0447 283.629 43.0901 283.629 44.3636H284.629ZM283.027 40.4602L283.738 39.7569C282.403 38.4078 280.395 37.8409 277.947 37.8409V38.8409V39.8409C280.137 39.8409 281.515 40.3536 282.316 41.1636L283.027 40.4602ZM277.947 38.8409V37.8409H269.97V38.8409V39.8409H277.947V38.8409ZM269.97 38.8409H268.97V50.4318H269.97H270.97V38.8409H269.97ZM312.916 43.8182V42.8182H311.916V43.8182H312.916ZM316.939 43.8182H317.939V42.8182H316.939V43.8182ZM316.939 70V71H317.939V70H316.939ZM312.916 70H311.916V71H312.916V70ZM312.916 65.5682H313.916V64.5682H312.916V65.5682ZM312.643 65.5682V64.5682H312.004L311.736 65.1491L312.643 65.5682ZM309.78 68.9602L310.359 69.7754L310.364 69.772L309.78 68.9602ZM300.507 69.267L300.011 70.1353L300.017 70.1386L300.507 69.267ZM297.507 65.9943L296.611 66.4388L296.613 66.4415L297.507 65.9943ZM296.416 43.8182V42.8182H295.416V43.8182H296.416ZM300.439 43.8182H301.439V42.8182H300.439V43.8182ZM302.041 64.75L301.313 65.4349L301.316 65.4388L302.041 64.75ZM309.217 65.6875L308.778 64.7892L308.774 64.7911L309.217 65.6875ZM311.842 63.3352L311.014 62.7744L311.01 62.7805L311.842 63.3352ZM312.916 59.2955H313.916V43.8182H312.916H311.916V59.2955H312.916ZM312.916 43.8182V44.8182H316.939V43.8182V42.8182H312.916V43.8182ZM316.939 43.8182H315.939V70H316.939H317.939V43.8182H316.939ZM316.939 70V69H312.916V70V71H316.939V70ZM312.916 70H313.916V65.5682H312.916H311.916V70H312.916ZM312.916 65.5682V64.5682H312.643V65.5682V66.5682H312.916V65.5682ZM312.643 65.5682L311.736 65.1491C311.201 66.3081 310.364 67.3081 309.196 68.1484L309.78 68.9602L310.364 69.772C311.786 68.7487 312.859 67.4873 313.551 65.9872L312.643 65.5682ZM309.78 68.9602L309.201 68.145C308.112 68.9187 306.692 69.3409 304.871 69.3409V70.3409V71.3409C307.004 71.3409 308.857 70.8427 310.359 69.7754L309.78 68.9602ZM304.871 70.3409V69.3409C303.385 69.3409 302.103 69.0174 300.997 68.3955L300.507 69.267L300.017 70.1386C301.457 70.9485 303.084 71.3409 304.871 71.3409V70.3409ZM300.507 69.267L301.003 68.3988C299.92 67.7801 299.051 66.8451 298.402 65.5471L297.507 65.9943L296.613 66.4415C297.418 68.0526 298.548 69.2995 300.011 70.1353L300.507 69.267ZM297.507 65.9943L298.403 65.5499C297.764 64.2627 297.416 62.5804 297.416 60.4545H296.416H295.416C295.416 62.7832 295.795 64.7941 296.611 66.4388L297.507 65.9943ZM296.416 60.4545H297.416V43.8182H296.416H295.416V60.4545H296.416ZM296.416 43.8182V44.8182H300.439V43.8182V42.8182H296.416V43.8182ZM300.439 43.8182H299.439V60.1818H300.439H301.439V43.8182H300.439ZM300.439 60.1818H299.439C299.439 62.2853 300.033 64.0735 301.313 65.4349L302.041 64.75L302.77 64.0651C301.913 63.1538 301.439 61.8965 301.439 60.1818H300.439ZM302.041 64.75L301.316 65.4388C302.598 66.788 304.242 67.4545 306.166 67.4545V66.4545V65.4545C304.75 65.4545 303.644 64.9847 302.766 64.0612L302.041 64.75ZM306.166 66.4545V67.4545C307.342 67.4545 308.51 67.1529 309.661 66.5839L309.217 65.6875L308.774 64.7911C307.857 65.2448 306.99 65.4545 306.166 65.4545V66.4545ZM309.217 65.6875L309.657 66.5858C310.875 65.9897 311.881 65.0801 312.674 63.8899L311.842 63.3352L311.01 62.7805C310.395 63.7039 309.65 64.3626 308.778 64.7892L309.217 65.6875ZM311.842 63.3352L312.67 63.8961C313.526 62.6327 313.916 61.0757 313.916 59.2955H312.916H311.916C311.916 60.788 311.59 61.9241 311.014 62.7744L311.842 63.3352ZM324.307 70H323.307V71H324.307V70ZM324.307 43.8182V42.8182H323.307V43.8182H324.307ZM328.33 43.8182H329.33V42.8182H328.33V43.8182ZM328.33 70V71H329.33V70H328.33ZM324.324 38.6534L323.632 39.3751L323.639 39.382L324.324 38.6534ZM324.324 34.8011L323.639 34.0725L323.632 34.0795L324.324 34.8011ZM328.364 34.8011L327.671 35.5229L327.679 35.5298L328.364 34.8011ZM328.364 38.6534L327.679 37.9247L327.671 37.9317L328.364 38.6534ZM324.307 70H325.307V43.8182H324.307H323.307V70H324.307ZM324.307 43.8182V44.8182H328.33V43.8182V42.8182H324.307V43.8182ZM328.33 43.8182H327.33V70H328.33H329.33V43.8182H328.33ZM328.33 70V69H324.307V70V71H328.33V70ZM326.352 39.4545V38.4545C325.821 38.4545 325.39 38.2835 325.009 37.9248L324.324 38.6534L323.639 39.382C324.394 40.0915 325.315 40.4545 326.352 40.4545V39.4545ZM324.324 38.6534L325.016 37.9317C324.65 37.5801 324.489 37.1961 324.489 36.7273H323.489H322.489C322.489 37.7584 322.885 38.6585 323.632 39.3751L324.324 38.6534ZM323.489 36.7273H324.489C324.489 36.2584 324.65 35.8744 325.016 35.5228L324.324 34.8011L323.632 34.0795C322.885 34.796 322.489 35.6961 322.489 36.7273H323.489ZM324.324 34.8011L325.009 35.5298C325.39 35.1711 325.821 35 326.352 35V34V33C325.315 33 324.394 33.363 323.639 34.0725L324.324 34.8011ZM326.352 34V35C326.883 35 327.304 35.1705 327.671 35.5228L328.364 34.8011L329.056 34.0795C328.309 33.3636 327.39 33 326.352 33V34ZM328.364 34.8011L327.679 35.5298C328.055 35.8833 328.216 36.2653 328.216 36.7273H329.216H330.216C330.216 35.6892 329.809 34.7871 329.049 34.0725L328.364 34.8011ZM329.216 36.7273H328.216C328.216 37.1892 328.055 37.5712 327.679 37.9248L328.364 38.6534L329.049 39.382C329.809 38.6674 330.216 37.7653 330.216 36.7273H329.216ZM328.364 38.6534L327.671 37.9317C327.304 38.284 326.883 38.4545 326.352 38.4545V39.4545V40.4545C327.39 40.4545 328.309 40.091 329.056 39.3751L328.364 38.6534ZM339.72 35.0909H340.72V34.0909H339.72V35.0909ZM339.72 70V71H340.72V70H339.72ZM335.697 70H334.697V71H335.697V70ZM335.697 35.0909V34.0909H334.697V35.0909H335.697ZM339.72 35.0909H338.72V70H339.72H340.72V35.0909H339.72ZM339.72 70V69H335.697V70V71H339.72V70ZM335.697 70H336.697V35.0909H335.697H334.697V70H335.697ZM335.697 35.0909V36.0909H339.72V35.0909V34.0909H335.697V35.0909ZM351.196 68.892L350.641 69.7241L350.645 69.7267L351.196 68.892ZM347.276 64.1875L346.368 64.6082L346.369 64.6101L347.276 64.1875ZM347.276 49.8182L346.369 49.3956V49.3956L347.276 49.8182ZM351.213 45.1307L350.665 44.2943V44.2943L351.213 45.1307ZM361.082 44.3295L360.584 45.1966L360.596 45.2032L361.082 44.3295ZM363.366 46.2386L362.559 46.8283L362.564 46.8356L362.57 46.8427L363.366 46.2386ZM364.611 47.9773L363.772 48.5223L364.068 48.9773H364.611V47.9773ZM364.952 47.9773V48.9773H365.952V47.9773H364.952ZM364.952 35.0909V34.0909H363.952V35.0909H364.952ZM368.974 35.0909H369.974V34.0909H368.974V35.0909ZM368.974 70V71H369.974V70H368.974ZM365.088 70H364.088V71H365.088V70ZM365.088 65.9773H366.088V64.9773H365.088V65.9773ZM364.611 65.9773V64.9773H364.054L363.761 65.4509L364.611 65.9773ZM363.349 67.7841L364.145 68.3902L364.149 68.3841L363.349 67.7841ZM361.014 69.7102L361.497 70.5863L361.504 70.5821L361.014 69.7102ZM361.611 65.6705L362.213 66.4685L362.219 66.4646L361.611 65.6705ZM364.151 62.142L365.083 62.5024L365.084 62.5001L364.151 62.142ZM364.168 51.7784L363.234 52.1374L363.235 52.1398L364.168 51.7784ZM361.645 48.3352L361.047 49.1372L361.053 49.1411L361.645 48.3352ZM353.259 48.4034L353.867 49.1966L353.869 49.1957L353.259 48.4034ZM350.719 51.9318L349.784 51.5752L349.783 51.5791L350.719 51.9318ZM350.736 61.9886L349.799 62.3382L349.802 62.3467L350.736 61.9886ZM353.293 65.6023L352.669 66.384L352.678 66.3908L353.293 65.6023ZM356.974 70.5455V69.5455C354.97 69.5455 353.239 69.0421 351.747 68.0574L351.196 68.892L350.645 69.7267C352.494 70.9465 354.615 71.5455 356.974 71.5455V70.5455ZM351.196 68.892L351.751 68.06C350.249 67.0591 349.057 65.6406 348.182 63.7649L347.276 64.1875L346.369 64.6101C347.381 66.7799 348.802 68.4977 350.641 69.7241L351.196 68.892ZM347.276 64.1875L348.183 63.7668C347.313 61.8919 346.861 59.6382 346.861 56.9773H345.861H344.861C344.861 59.8618 345.351 62.4149 346.368 64.6082L347.276 64.1875ZM345.861 56.9773H346.861C346.861 54.3402 347.313 52.1041 348.182 50.2408L347.276 49.8182L346.369 49.3956C345.352 51.5777 344.861 54.1144 344.861 56.9773H345.861ZM347.276 49.8182L348.182 50.2408C349.055 48.3675 350.252 46.9564 351.761 45.9671L351.213 45.1307L350.665 44.2943C348.811 45.5095 347.382 47.2234 346.369 49.3956L347.276 49.8182ZM351.213 45.1307L351.761 45.9671C353.265 44.9818 355.013 44.4773 357.043 44.4773V43.4773V42.4773C354.663 42.4773 352.525 43.0751 350.665 44.2943L351.213 45.1307ZM357.043 43.4773V44.4773C358.652 44.4773 359.804 44.7483 360.584 45.1966L361.082 44.3295L361.581 43.4625C360.383 42.7745 358.842 42.4773 357.043 42.4773V43.4773ZM361.082 44.3295L360.596 45.2032C361.505 45.7094 362.142 46.258 362.559 46.8283L363.366 46.2386L364.174 45.6489C363.545 44.7875 362.66 44.0633 361.569 43.4559L361.082 44.3295ZM363.366 46.2386L362.57 46.8427C363.097 47.5384 363.496 48.0964 363.772 48.5223L364.611 47.9773L365.449 47.4323C365.135 46.949 364.704 46.348 364.163 45.6345L363.366 46.2386ZM364.611 47.9773V48.9773H364.952V47.9773V46.9773H364.611V47.9773ZM364.952 47.9773H365.952V35.0909H364.952H363.952V47.9773H364.952ZM364.952 35.0909V36.0909H368.974V35.0909V34.0909H364.952V35.0909ZM368.974 35.0909H367.974V70H368.974H369.974V35.0909H368.974ZM368.974 70V69H365.088V70V71H368.974V70ZM365.088 70H366.088V65.9773H365.088H364.088V70H365.088ZM365.088 65.9773V64.9773H364.611V65.9773V66.9773H365.088V65.9773ZM364.611 65.9773L363.761 65.4509C363.487 65.8923 363.086 66.468 362.549 67.1841L363.349 67.7841L364.149 68.3841C364.703 67.6456 365.143 67.0167 365.461 66.5036L364.611 65.9773ZM363.349 67.7841L362.554 67.178C362.111 67.759 361.45 68.3185 360.524 68.8384L361.014 69.7102L361.504 70.5821C362.601 69.9656 363.497 69.241 364.145 68.3901L363.349 67.7841ZM361.014 69.7102L360.532 68.8342C359.721 69.2809 358.559 69.5455 356.974 69.5455V70.5455V71.5455C358.753 71.5455 360.285 71.2531 361.496 70.5862L361.014 69.7102ZM357.52 66.9318V67.9318C359.316 67.9318 360.9 67.4603 362.213 66.4685L361.611 65.6705L361.008 64.8724C360.094 65.5624 358.951 65.9318 357.52 65.9318V66.9318ZM361.611 65.6705L362.219 66.4646C363.499 65.4848 364.447 64.1485 365.083 62.5024L364.151 62.142L363.218 61.7816C362.695 63.1356 361.95 64.1516 361.003 64.8763L361.611 65.6705ZM364.151 62.142L365.084 62.5001C365.716 60.8522 366.02 58.9825 366.02 56.9091H365.02H364.02C364.02 58.7902 363.744 60.4091 363.217 61.784L364.151 62.142ZM365.02 56.9091H366.02C366.02 54.8599 365.722 53.0224 365.1 51.417L364.168 51.7784L363.235 52.1398C363.749 53.4662 364.02 55.0492 364.02 56.9091H365.02ZM364.168 51.7784L365.101 51.4194C364.474 49.7902 363.526 48.4766 362.237 47.5293L361.645 48.3352L361.053 49.1411C361.991 49.8303 362.725 50.812 363.234 52.1374L364.168 51.7784ZM361.645 48.3352L362.242 47.5333C360.927 46.5533 359.332 46.0909 357.52 46.0909V47.0909V48.0909C358.981 48.0909 360.136 48.4581 361.048 49.1372L361.645 48.3352ZM357.52 47.0909V46.0909C355.638 46.0909 353.991 46.5773 352.648 47.6111L353.259 48.4034L353.869 49.1957C354.799 48.4795 355.993 48.0909 357.52 48.0909V47.0909ZM353.259 48.4034L352.65 47.6102C351.36 48.6 350.41 49.9357 349.784 51.5752L350.719 51.9318L351.653 52.2884C352.164 50.9507 352.907 49.9341 353.867 49.1966L353.259 48.4034ZM350.719 51.9318L349.783 51.5791C349.177 53.1862 348.884 54.9674 348.884 56.9091H349.884H350.884C350.884 55.169 351.147 53.632 351.654 52.2845L350.719 51.9318ZM349.884 56.9091H348.884C348.884 58.8748 349.183 60.6886 349.799 62.3382L350.736 61.9886L351.673 61.639C351.152 60.2433 350.884 58.6706 350.884 56.9091H349.884ZM350.736 61.9886L349.802 62.3467C350.437 64.0031 351.388 65.3618 352.669 66.3839L353.293 65.6023L353.916 64.8206C352.947 64.0473 352.193 62.9969 351.67 61.6306L350.736 61.9886ZM353.293 65.6023L352.678 66.3908C354.018 67.4363 355.654 67.9318 357.52 67.9318V66.9318V65.9318C356.022 65.9318 354.84 65.541 353.908 64.8138L353.293 65.6023ZM381.349 68.875L380.823 69.7254L380.829 69.7292L381.349 68.875ZM377.139 64.1705L376.239 64.6055L376.242 64.6116L377.139 64.1705ZM377.139 50.0227L376.238 49.5895L376.237 49.5916L377.139 50.0227ZM381.264 45.2159L381.81 46.0537L381.811 46.0529L381.264 45.2159ZM391.509 44.1591L391.832 43.2129V43.2129L391.509 44.1591ZM395.139 46.375L394.455 47.1045L394.459 47.1083L395.139 46.375ZM397.747 50.3977L398.68 50.0362V50.0362L397.747 50.3977ZM398.719 58.2727V59.2727H399.719V58.2727H398.719ZM378.537 58.2727H377.537V59.2727H378.537V58.2727ZM378.537 54.7955V53.7955H377.537V54.7955H378.537ZM394.628 54.7955V55.7955H395.628V54.7955H394.628ZM393.741 50.8409L392.847 51.2881L392.851 51.2951L393.741 50.8409ZM391.253 48.0966L390.721 48.9436L390.725 48.9461L391.253 48.0966ZM383.31 48.2841L383.87 49.1124L383.872 49.1112L383.31 48.2841ZM380.634 51.3523L379.737 50.9083V50.9083L380.634 51.3523ZM380.719 62.7557L379.823 63.2L379.827 63.2088L380.719 62.7557ZM383.599 65.875L383.096 66.7388L383.102 66.7423L383.599 65.875ZM390.741 66.4886L391.069 67.4335L391.076 67.4309L390.741 66.4886ZM392.974 65.125L393.668 65.8451L393.675 65.8386L392.974 65.125ZM394.423 62.8409L394.694 61.8781L393.809 61.6299L393.487 62.4898L394.423 62.8409ZM398.31 63.9318L399.265 64.2282L399.569 63.2468L398.58 62.969L398.31 63.9318ZM396.247 67.4091L396.962 68.1079L396.966 68.1038L396.247 67.4091ZM392.668 69.7273L393.026 70.6608L393.033 70.6583L392.668 69.7273ZM387.878 70.5455V69.5455C385.506 69.5455 383.516 69.0233 381.869 68.0208L381.349 68.875L380.829 69.7292C382.842 70.954 385.205 71.5455 387.878 71.5455V70.5455ZM381.349 68.875L381.876 68.0246C380.225 67.0033 378.947 65.5806 378.037 63.7293L377.139 64.1705L376.242 64.6116C377.309 66.783 378.837 68.4967 380.823 69.7254L381.349 68.875ZM377.139 64.1705L378.04 63.7354C377.139 61.8722 376.673 59.6737 376.673 57.1136H375.673H374.673C374.673 59.9172 375.184 62.4233 376.239 64.6055L377.139 64.1705ZM375.673 57.1136H376.673C376.673 54.5539 377.139 52.3422 378.042 50.4538L377.139 50.0227L376.237 49.5916C375.185 51.7941 374.673 54.3097 374.673 57.1136H375.673ZM377.139 50.0227L378.04 50.4559C378.957 48.5494 380.215 47.0931 381.81 46.0537L381.264 45.2159L380.718 44.3781C378.791 45.6341 377.299 47.3825 376.238 49.5895L377.139 50.0227ZM381.264 45.2159L381.811 46.0529C383.403 45.0123 385.276 44.4773 387.469 44.4773V43.4773V42.4773C384.934 42.4773 382.671 43.1014 380.717 44.3789L381.264 45.2159ZM387.469 43.4773V44.4773C388.719 44.4773 389.956 44.6853 391.185 45.1053L391.509 44.1591L391.832 43.2129C390.402 42.7238 388.946 42.4773 387.469 42.4773V43.4773ZM391.509 44.1591L391.185 45.1053C392.372 45.5111 393.461 46.1724 394.455 47.1045L395.139 46.375L395.823 45.6455C394.636 44.5321 393.304 43.7162 391.832 43.2129L391.509 44.1591ZM395.139 46.375L394.459 47.1083C395.419 47.9976 396.211 49.2018 396.815 50.7593L397.747 50.3977L398.68 50.0362C397.988 48.2528 397.042 46.7752 395.819 45.6417L395.139 46.375ZM397.747 50.3977L396.815 50.7593C397.405 52.2808 397.719 54.2066 397.719 56.5682H398.719H399.719C399.719 54.0434 399.385 51.8555 398.68 50.0362L397.747 50.3977ZM398.719 56.5682H397.719V58.2727H398.719H399.719V56.5682H398.719ZM398.719 58.2727V57.2727H378.537V58.2727V59.2727H398.719V58.2727ZM378.537 58.2727H379.537V54.7955H378.537H377.537V58.2727H378.537ZM378.537 54.7955V55.7955H394.628V54.7955V53.7955H378.537V54.7955ZM394.628 54.7955H395.628C395.628 53.1819 395.304 51.7045 394.632 50.3867L393.741 50.8409L392.851 51.2951C393.361 52.2955 393.628 53.4545 393.628 54.7955H394.628ZM393.741 50.8409L394.636 50.3937C393.975 49.0726 393.02 48.0171 391.78 47.2471L391.253 48.0966L390.725 48.9461C391.644 49.5169 392.349 50.291 392.847 51.2881L393.741 50.8409ZM391.253 48.0966L391.784 47.2496C390.534 46.4646 389.082 46.0909 387.469 46.0909V47.0909V48.0909C388.765 48.0909 389.836 48.3877 390.721 48.9436L391.253 48.0966ZM387.469 47.0909V46.0909C385.693 46.0909 384.105 46.5344 382.748 47.457L383.31 48.2841L383.872 49.1112C384.855 48.4429 386.04 48.0909 387.469 48.0909V47.0909ZM383.31 48.2841L382.749 47.4558C381.446 48.3374 380.439 49.4929 379.737 50.9083L380.634 51.3523L381.53 51.7963C382.078 50.6889 382.855 49.799 383.87 49.1124L383.31 48.2841ZM380.634 51.3523L379.737 50.9083C379.042 52.3112 378.696 53.8159 378.696 55.4091H379.696H380.696C380.696 54.1159 380.975 52.9161 381.53 51.7963L380.634 51.3523ZM379.696 55.4091H378.696V57.7273H379.696H380.696V55.4091H379.696ZM379.696 57.7273H378.696C378.696 59.8157 379.056 61.6529 379.823 63.1999L380.719 62.7557L381.615 62.3114C381.018 61.1084 380.696 59.5934 380.696 57.7273H379.696ZM380.719 62.7557L379.827 63.2088C380.601 64.73 381.69 65.9186 383.096 66.7388L383.599 65.875L384.103 65.0112C383.055 64.3996 382.223 63.5086 381.61 62.3025L380.719 62.7557ZM383.599 65.875L383.102 66.7423C384.502 67.546 386.104 67.9318 387.878 67.9318V66.9318V65.9318C386.401 65.9318 385.152 65.6131 384.097 65.0077L383.599 65.875ZM387.878 66.9318V67.9318C389.027 67.9318 390.095 67.7711 391.069 67.4335L390.741 66.4886L390.414 65.5438C389.683 65.7971 388.842 65.9318 387.878 65.9318V66.9318ZM390.741 66.4886L391.076 67.4309C392.066 67.0792 392.935 66.5516 393.668 65.8451L392.974 65.125L392.281 64.4049C391.764 64.9029 391.144 65.2845 390.407 65.5463L390.741 66.4886ZM392.974 65.125L393.675 65.8386C394.415 65.1121 394.973 64.2227 395.36 63.192L394.423 62.8409L393.487 62.4898C393.192 63.2773 392.784 63.9106 392.274 64.4114L392.974 65.125ZM394.423 62.8409L394.153 63.8037L398.039 64.8946L398.31 63.9318L398.58 62.969L394.694 61.8781L394.423 62.8409ZM398.31 63.9318L397.355 63.6354C396.992 64.8031 396.386 65.826 395.528 66.7144L396.247 67.4091L396.966 68.1038C398.04 66.9922 398.809 65.6969 399.265 64.2282L398.31 63.9318ZM396.247 67.4091L395.532 66.7103C394.675 67.5875 393.605 68.2857 392.303 68.7962L392.668 69.7273L393.033 70.6583C394.571 70.0552 395.888 69.208 396.962 68.1079L396.247 67.4091ZM392.668 69.7273L392.309 68.7937C391.02 69.2886 389.548 69.5455 387.878 69.5455V70.5455V71.5455C389.753 71.5455 391.474 71.2568 393.026 70.6608L392.668 69.7273ZM404.838 70H403.838V71H404.838V70ZM404.838 43.8182V42.8182H403.838V43.8182H404.838ZM408.724 43.8182H409.724V42.8182H408.724V43.8182ZM408.724 47.7727H407.724V48.7727H408.724V47.7727ZM408.997 47.7727V48.7727H409.694L409.936 48.1184L408.997 47.7727ZM411.588 44.6193L411.046 43.7791V43.7791L411.588 44.6193ZM417.929 43.4773H418.929V42.5723L418.028 42.4822L417.929 43.4773ZM417.929 47.5682L417.686 48.5383L418.929 48.849V47.5682H417.929ZM416.991 47.4148L416.827 48.4012L416.84 48.4033L416.853 48.4052L416.991 47.4148ZM412.065 48.0966L412.533 48.9806L412.536 48.9787L412.065 48.0966ZM409.713 50.2784L408.864 49.7503L408.862 49.7531L409.713 50.2784ZM408.861 70V71H409.861V70H408.861ZM404.838 70H405.838V43.8182H404.838H403.838V70H404.838ZM404.838 43.8182V44.8182H408.724V43.8182V42.8182H404.838V43.8182ZM408.724 43.8182H407.724V47.7727H408.724H409.724V43.8182H408.724ZM408.724 47.7727V48.7727H408.997V47.7727V46.7727H408.724V47.7727ZM408.997 47.7727L409.936 48.1184C410.332 47.0425 411.047 46.1585 412.13 45.4595L411.588 44.6193L411.046 43.7791C409.629 44.6938 408.617 45.912 408.059 47.427L408.997 47.7727ZM411.588 44.6193L412.13 45.4595C413.21 44.7628 414.429 44.4091 415.815 44.4091V43.4091V42.4091C414.066 42.4091 412.466 42.8622 411.046 43.7791L411.588 44.6193ZM415.815 43.4091V44.4091C416.099 44.4091 416.459 44.4146 416.898 44.4258L416.923 43.4261L416.949 42.4265C416.501 42.415 416.122 42.4091 415.815 42.4091V43.4091ZM416.923 43.4261L416.898 44.4258C417.335 44.437 417.64 44.4534 417.829 44.4723L417.929 43.4773L418.028 42.4822C417.763 42.4557 417.398 42.438 416.949 42.4265L416.923 43.4261ZM417.929 43.4773H416.929V47.5682H417.929H418.929V43.4773H417.929ZM417.929 47.5682L418.172 46.598C417.973 46.5484 417.603 46.4905 417.13 46.4244L416.991 47.4148L416.853 48.4052C417.357 48.4754 417.612 48.5198 417.686 48.5383L417.929 47.5682ZM416.991 47.4148L417.156 46.4284C416.619 46.3389 416.058 46.2955 415.474 46.2955V47.2955V48.2955C415.959 48.2955 416.409 48.3316 416.827 48.4012L416.991 47.4148ZM415.474 47.2955V46.2955C414.058 46.2955 412.756 46.5939 411.594 47.2145L412.065 48.0966L412.536 48.9787C413.374 48.5311 414.346 48.2955 415.474 48.2955V47.2955ZM412.065 48.0966L411.598 47.2126C410.456 47.8164 409.539 48.6651 408.864 49.7503L409.713 50.2784L410.562 50.8065C411.046 50.028 411.697 49.4223 412.533 48.9806L412.065 48.0966ZM409.713 50.2784L408.862 49.7531C408.188 50.8459 407.861 52.0823 407.861 53.4318H408.861H409.861C409.861 52.4177 410.102 51.5518 410.564 50.8037L409.713 50.2784ZM408.861 53.4318H407.861V70H408.861H409.861V53.4318H408.861ZM408.861 70V69H404.838V70V71H408.861V70Z" fill="black" mask="url(#path-7-outside-1_8_19)"/>
</svg>
