<svg width="488" height="97" viewBox="0 0 488 97" fill="none" xmlns="http://www.w3.org/2000/svg">
<path d="M70.4417 13.7417L70.4417 16.1667" stroke="#0F172A" stroke-width="2.5" stroke-linecap="round" stroke-linejoin="round"/>
<path d="M33.8833 13.7417L33.8833 16.1667" stroke="#0F172A" stroke-width="2.5" stroke-linecap="round" stroke-linejoin="round"/>
<path d="M84.7083 16.1667H22.2917C17.3671 16.1667 13.375 19.7857 13.375 24.25V80.8333C13.375 85.2976 17.3671 88.9167 22.2917 88.9167H84.7083C89.6329 88.9167 93.625 85.2976 93.625 80.8333V24.25C93.625 19.7857 89.6329 16.1667 84.7083 16.1667Z" stroke="#0F172A" stroke-width="2.5" stroke-linecap="round" stroke-linejoin="round"/>
<path d="M13.375 40.4167H93.625" stroke="#0F172A" stroke-width="2.5" stroke-linecap="round" stroke-linejoin="round"/>
<line x1="80" y1="42" x2="80" y2="79.1833" stroke="#0EA5A4" stroke-width="4"/>
<line y1="-2" x2="37.1755" y2="-2" transform="matrix(0.00259297 0.999997 -0.999997 0.00257381 24.0991 42.2574)" stroke="#2563EB" stroke-width="4"/>
<path d="M129.932 50H126.409C126.201 48.9867 125.836 48.0966 125.315 47.3295C124.804 46.5625 124.179 45.9186 123.44 45.3977C122.711 44.8674 121.902 44.4697 121.011 44.2045C120.121 43.9394 119.193 43.8068 118.227 43.8068C116.466 43.8068 114.87 44.2519 113.44 45.142C112.02 46.0322 110.888 47.3438 110.045 49.0767C109.212 50.8097 108.795 52.9356 108.795 55.4545C108.795 57.9735 109.212 60.0994 110.045 61.8324C110.888 63.5653 112.02 64.8769 113.44 65.767C114.87 66.6572 116.466 67.1023 118.227 67.1023C119.193 67.1023 120.121 66.9697 121.011 66.7045C121.902 66.4394 122.711 66.0464 123.44 65.5256C124.179 64.9953 124.804 64.3466 125.315 63.5795C125.836 62.803 126.201 61.9129 126.409 60.9091H129.932C129.667 62.3958 129.184 63.7263 128.483 64.9006C127.782 66.0748 126.911 67.0739 125.869 67.8977C124.828 68.7121 123.658 69.3324 122.361 69.7585C121.073 70.1847 119.695 70.3977 118.227 70.3977C115.746 70.3977 113.54 69.7917 111.608 68.5795C109.676 67.3674 108.156 65.6439 107.048 63.4091C105.94 61.1742 105.386 58.5227 105.386 55.4545C105.386 52.3864 105.94 49.7348 107.048 47.5C108.156 45.2652 109.676 43.5417 111.608 42.3295C113.54 41.1174 115.746 40.5114 118.227 40.5114C119.695 40.5114 121.073 40.7244 122.361 41.1506C123.658 41.5767 124.828 42.2017 125.869 43.0256C126.911 43.84 127.782 44.8343 128.483 46.0085C129.184 47.1733 129.667 48.5038 129.932 50ZM148.92 61.0795V48.1818H152.272V70H148.92V66.3068H148.692C148.181 67.4148 147.386 68.357 146.306 69.1335C145.227 69.9006 143.863 70.2841 142.215 70.2841C140.852 70.2841 139.639 69.9858 138.579 69.3892C137.518 68.7831 136.685 67.8741 136.079 66.6619C135.473 65.4403 135.17 63.9015 135.17 62.0455V48.1818H138.522V61.8182C138.522 63.4091 138.967 64.678 139.857 65.625C140.757 66.572 141.903 67.0455 143.295 67.0455C144.128 67.0455 144.976 66.8324 145.837 66.4062C146.709 65.9801 147.438 65.3267 148.025 64.446C148.621 63.5653 148.92 62.4432 148.92 61.0795ZM173.866 53.0682L170.855 53.9205C170.666 53.4186 170.386 52.9309 170.017 52.4574C169.657 51.9744 169.165 51.5767 168.54 51.2642C167.915 50.9517 167.115 50.7955 166.139 50.7955C164.804 50.7955 163.691 51.1032 162.801 51.7188C161.92 52.3248 161.48 53.0966 161.48 54.0341C161.48 54.8674 161.783 55.5256 162.389 56.0085C162.995 56.4915 163.942 56.8939 165.23 57.2159L168.469 58.0114C170.42 58.4848 171.873 59.2093 172.83 60.1847C173.786 61.1506 174.264 62.3958 174.264 63.9205C174.264 65.1705 173.904 66.2879 173.185 67.2727C172.474 68.2576 171.48 69.0341 170.202 69.6023C168.923 70.1705 167.437 70.4545 165.741 70.4545C163.516 70.4545 161.674 69.9716 160.216 69.0057C158.758 68.0398 157.834 66.6288 157.446 64.7727L160.628 63.9773C160.931 65.1515 161.504 66.0322 162.347 66.6193C163.199 67.2064 164.312 67.5 165.685 67.5C167.247 67.5 168.488 67.1686 169.406 66.5057C170.334 65.8333 170.798 65.0284 170.798 64.0909C170.798 63.3333 170.533 62.6989 170.003 62.1875C169.473 61.6667 168.658 61.2784 167.56 61.0227L163.923 60.1705C161.925 59.697 160.457 58.9631 159.52 57.9688C158.592 56.965 158.128 55.7102 158.128 54.2045C158.128 52.9735 158.473 51.8845 159.165 50.9375C159.866 49.9905 160.817 49.2472 162.02 48.7074C163.232 48.1676 164.605 47.8977 166.139 47.8977C168.298 47.8977 169.993 48.3712 171.224 49.3182C172.465 50.2652 173.346 51.5152 173.866 53.0682ZM188.799 48.1818V51.0227H177.492V48.1818H188.799ZM180.788 42.9545H184.14V63.75C184.14 64.697 184.277 65.4072 184.552 65.8807C184.836 66.3447 185.196 66.6572 185.631 66.8182C186.076 66.9697 186.545 67.0455 187.038 67.0455C187.407 67.0455 187.71 67.0265 187.947 66.9886C188.183 66.9413 188.373 66.9034 188.515 66.875L189.197 69.8864C188.969 69.9716 188.652 70.0568 188.245 70.142C187.838 70.2367 187.322 70.2841 186.697 70.2841C185.75 70.2841 184.822 70.0805 183.913 69.6733C183.013 69.2661 182.265 68.6458 181.668 67.8125C181.081 66.9792 180.788 65.928 180.788 64.6591V42.9545ZM202.471 70.4545C200.501 70.4545 198.773 69.9858 197.286 69.0483C195.809 68.1108 194.654 66.7992 193.82 65.1136C192.996 63.428 192.585 61.4583 192.585 59.2045C192.585 56.9318 192.996 54.9479 193.82 53.2528C194.654 51.5578 195.809 50.2415 197.286 49.304C198.773 48.3665 200.501 47.8977 202.471 47.8977C204.441 47.8977 206.164 48.3665 207.641 49.304C209.128 50.2415 210.283 51.5578 211.107 53.2528C211.941 54.9479 212.357 56.9318 212.357 59.2045C212.357 61.4583 211.941 63.428 211.107 65.1136C210.283 66.7992 209.128 68.1108 207.641 69.0483C206.164 69.9858 204.441 70.4545 202.471 70.4545ZM202.471 67.4432C203.967 67.4432 205.198 67.0597 206.164 66.2926C207.13 65.5256 207.845 64.517 208.309 63.267C208.773 62.017 209.005 60.6629 209.005 59.2045C209.005 57.7462 208.773 56.3873 208.309 55.1278C207.845 53.8684 207.13 52.8504 206.164 52.0739C205.198 51.2973 203.967 50.9091 202.471 50.9091C200.975 50.9091 199.744 51.2973 198.778 52.0739C197.812 52.8504 197.097 53.8684 196.633 55.1278C196.169 56.3873 195.937 57.7462 195.937 59.2045C195.937 60.6629 196.169 62.017 196.633 63.267C197.097 64.517 197.812 65.5256 198.778 66.2926C199.744 67.0597 200.975 67.4432 202.471 67.4432ZM225.713 70.4545C223.895 70.4545 222.29 69.9953 220.898 69.0767C219.506 68.1487 218.417 66.8419 217.631 65.1562C216.845 63.4612 216.452 61.4583 216.452 59.1477C216.452 56.8561 216.845 54.8674 217.631 53.1818C218.417 51.4962 219.51 50.1941 220.912 49.2756C222.313 48.357 223.933 47.8977 225.77 47.8977C227.19 47.8977 228.313 48.1345 229.136 48.608C229.97 49.072 230.604 49.6023 231.04 50.1989C231.485 50.786 231.83 51.2689 232.077 51.6477H232.361V40.9091H235.713V70H232.474V66.6477H232.077C231.83 67.0455 231.48 67.5473 231.026 68.1534C230.571 68.75 229.922 69.285 229.08 69.7585C228.237 70.2225 227.115 70.4545 225.713 70.4545ZM226.168 67.4432C227.512 67.4432 228.649 67.0928 229.577 66.392C230.505 65.6818 231.21 64.7017 231.693 63.4517C232.176 62.1922 232.418 60.7386 232.418 59.0909C232.418 57.4621 232.181 56.0369 231.707 54.8153C231.234 53.5843 230.533 52.6278 229.605 51.946C228.677 51.2547 227.531 50.9091 226.168 50.9091C224.747 50.9091 223.563 51.2737 222.616 52.0028C221.679 52.7225 220.973 53.7027 220.5 54.9432C220.036 56.1742 219.804 57.5568 219.804 59.0909C219.804 60.6439 220.041 62.0549 220.514 63.3239C220.997 64.5833 221.707 65.5871 222.645 66.3352C223.592 67.0739 224.766 67.4432 226.168 67.4432ZM244.477 78.1818C243.909 78.1818 243.402 78.1345 242.957 78.0398C242.512 77.9545 242.205 77.8693 242.034 77.7841L242.886 74.8295C243.701 75.0379 244.42 75.1136 245.045 75.0568C245.67 75 246.224 74.7206 246.707 74.2188C247.2 73.7263 247.65 72.9261 248.057 71.8182L248.682 70.1136L240.614 48.1818H244.25L250.273 65.5682H250.5L256.523 48.1818H260.159L250.898 73.1818C250.481 74.3087 249.965 75.2415 249.349 75.9801C248.734 76.7282 248.019 77.2822 247.205 77.642C246.4 78.0019 245.491 78.1818 244.477 78.1818ZM265.743 70V35.0909H277.947C280.379 35.0909 282.385 35.5114 283.964 36.3523C285.544 37.1818 286.72 38.3011 287.493 39.7102C288.266 41.108 288.652 42.6591 288.652 44.3636C288.652 45.8636 288.385 47.1023 287.851 48.0795C287.328 49.0568 286.635 49.8295 285.771 50.3977C284.919 50.9659 283.993 51.3864 282.993 51.6591V52C284.061 52.0682 285.135 52.4432 286.214 53.125C287.294 53.8068 288.197 54.7841 288.925 56.0568C289.652 57.3295 290.016 58.8864 290.016 60.7273C290.016 62.4773 289.618 64.0511 288.822 65.4489C288.027 66.8466 286.771 67.9545 285.055 68.7727C283.339 69.5909 281.107 70 278.357 70H265.743ZM269.97 66.25H278.357C281.118 66.25 283.078 65.7159 284.237 64.6477C285.408 63.5682 285.993 62.2614 285.993 60.7273C285.993 59.5455 285.692 58.4545 285.089 57.4545C284.487 56.4432 283.629 55.6364 282.516 55.0341C281.402 54.4205 280.084 54.1136 278.561 54.1136H269.97V66.25ZM269.97 50.4318H277.811C279.084 50.4318 280.232 50.1818 281.254 49.6818C282.288 49.1818 283.107 48.4773 283.709 47.5682C284.322 46.6591 284.629 45.5909 284.629 44.3636C284.629 42.8295 284.095 41.5284 283.027 40.4602C281.959 39.3807 280.266 38.8409 277.947 38.8409H269.97V50.4318ZM312.916 59.2955V43.8182H316.939V70H312.916V65.5682H312.643C312.03 66.8977 311.075 68.0284 309.78 68.9602C308.484 69.8807 306.848 70.3409 304.871 70.3409C303.234 70.3409 301.78 69.983 300.507 69.267C299.234 68.5398 298.234 67.4489 297.507 65.9943C296.78 64.5284 296.416 62.6818 296.416 60.4545V43.8182H300.439V60.1818C300.439 62.0909 300.973 63.6136 302.041 64.75C303.121 65.8864 304.496 66.4545 306.166 66.4545C307.166 66.4545 308.183 66.1989 309.217 65.6875C310.263 65.1761 311.138 64.392 311.842 63.3352C312.558 62.2784 312.916 60.9318 312.916 59.2955ZM324.307 70V43.8182H328.33V70H324.307ZM326.352 39.4545C325.568 39.4545 324.892 39.1875 324.324 38.6534C323.767 38.1193 323.489 37.4773 323.489 36.7273C323.489 35.9773 323.767 35.3352 324.324 34.8011C324.892 34.267 325.568 34 326.352 34C327.136 34 327.807 34.267 328.364 34.8011C328.932 35.3352 329.216 35.9773 329.216 36.7273C329.216 37.4773 328.932 38.1193 328.364 38.6534C327.807 39.1875 327.136 39.4545 326.352 39.4545ZM339.72 35.0909V70H335.697V35.0909H339.72ZM356.974 70.5455C354.793 70.5455 352.866 69.9943 351.196 68.892C349.526 67.7784 348.219 66.2102 347.276 64.1875C346.332 62.1534 345.861 59.75 345.861 56.9773C345.861 54.2273 346.332 51.8409 347.276 49.8182C348.219 47.7955 349.531 46.233 351.213 45.1307C352.895 44.0284 354.838 43.4773 357.043 43.4773C358.747 43.4773 360.094 43.7614 361.082 44.3295C362.082 44.8864 362.844 45.5227 363.366 46.2386C363.901 46.9432 364.315 47.5227 364.611 47.9773H364.952V35.0909H368.974V70H365.088V65.9773H364.611C364.315 66.4545 363.895 67.0568 363.349 67.7841C362.804 68.5 362.026 69.142 361.014 69.7102C360.003 70.267 358.656 70.5455 356.974 70.5455ZM357.52 66.9318C359.134 66.9318 360.497 66.5114 361.611 65.6705C362.724 64.8182 363.571 63.642 364.151 62.142C364.73 60.6307 365.02 58.8864 365.02 56.9091C365.02 54.9545 364.736 53.2443 364.168 51.7784C363.599 50.3011 362.759 49.1534 361.645 48.3352C360.531 47.5057 359.156 47.0909 357.52 47.0909C355.815 47.0909 354.395 47.5284 353.259 48.4034C352.134 49.267 351.287 50.4432 350.719 51.9318C350.162 53.4091 349.884 55.0682 349.884 56.9091C349.884 58.7727 350.168 60.4659 350.736 61.9886C351.315 63.5 352.168 64.7045 353.293 65.6023C354.429 66.4886 355.838 66.9318 357.52 66.9318ZM387.878 70.5455C385.355 70.5455 383.179 69.9886 381.349 68.875C379.531 67.75 378.128 66.1818 377.139 64.1705C376.162 62.1477 375.673 59.7955 375.673 57.1136C375.673 54.4318 376.162 52.0682 377.139 50.0227C378.128 47.9659 379.503 46.3636 381.264 45.2159C383.037 44.0568 385.105 43.4773 387.469 43.4773C388.832 43.4773 390.179 43.7045 391.509 44.1591C392.838 44.6136 394.048 45.3523 395.139 46.375C396.23 47.3864 397.099 48.7273 397.747 50.3977C398.395 52.0682 398.719 54.125 398.719 56.5682V58.2727H378.537V54.7955H394.628C394.628 53.3182 394.332 52 393.741 50.8409C393.162 49.6818 392.332 48.767 391.253 48.0966C390.185 47.4261 388.923 47.0909 387.469 47.0909C385.866 47.0909 384.48 47.4886 383.31 48.2841C382.151 49.0682 381.259 50.0909 380.634 51.3523C380.009 52.6136 379.696 53.9659 379.696 55.4091V57.7273C379.696 59.7045 380.037 61.3807 380.719 62.7557C381.412 64.1193 382.372 65.1591 383.599 65.875C384.827 66.5795 386.253 66.9318 387.878 66.9318C388.935 66.9318 389.889 66.7841 390.741 66.4886C391.605 66.1818 392.349 65.7273 392.974 65.125C393.599 64.5114 394.082 63.75 394.423 62.8409L398.31 63.9318C397.901 65.25 397.213 66.4091 396.247 67.4091C395.281 68.3977 394.088 69.1705 392.668 69.7273C391.247 70.2727 389.651 70.5455 387.878 70.5455ZM404.838 70V43.8182H408.724V47.7727H408.997C409.474 46.4773 410.338 45.4261 411.588 44.6193C412.838 43.8125 414.247 43.4091 415.815 43.4091C416.111 43.4091 416.48 43.4148 416.923 43.4261C417.366 43.4375 417.702 43.4545 417.929 43.4773V47.5682C417.793 47.5341 417.48 47.483 416.991 47.4148C416.514 47.3352 416.009 47.2955 415.474 47.2955C414.202 47.2955 413.065 47.5625 412.065 48.0966C411.077 48.6193 410.293 49.3466 409.713 50.2784C409.145 51.1989 408.861 52.25 408.861 53.4318V70H404.838Z" fill="#0F172A"/>
</svg>
