<svg width="498" height="120" viewBox="0 0 498 120" fill="none" xmlns="http://www.w3.org/2000/svg">
<path d="M40 10V30" stroke="#0F172A" stroke-width="2.5" stroke-linecap="round" stroke-linejoin="round"/>
<path d="M80 10V30" stroke="#0F172A" stroke-width="2.5" stroke-linecap="round" stroke-linejoin="round"/>
<path d="M95 20H25C19.4772 20 15 24.4772 15 30V100C15 105.523 19.4772 110 25 110H95C100.523 110 105 105.523 105 100V30C105 24.4772 100.523 20 95 20Z" stroke="#0F172A" stroke-width="2.5" stroke-linecap="round" stroke-linejoin="round"/>
<path d="M15 50H105" stroke="#0F172A" stroke-width="2.5" stroke-linecap="round" stroke-linejoin="round"/>
<path d="M45 83.5L57.3333 97L82 70" stroke="#16A34A" stroke-width="2.5" stroke-linecap="round" stroke-linejoin="round"/>
<path d="M140.77 59.7244H135.457C135.306 58.8532 135.027 58.0814 134.619 57.4091C134.212 56.7273 133.705 56.1496 133.099 55.6761C132.493 55.2027 131.802 54.8475 131.026 54.6108C130.259 54.3646 129.43 54.2415 128.54 54.2415C126.958 54.2415 125.557 54.6392 124.335 55.4347C123.114 56.2206 122.157 57.3759 121.466 58.9006C120.775 60.4157 120.429 62.267 120.429 64.4545C120.429 66.6799 120.775 68.5549 121.466 70.0795C122.167 71.5947 123.123 72.7405 124.335 73.517C125.557 74.2841 126.954 74.6676 128.526 74.6676C129.397 74.6676 130.211 74.554 130.969 74.3267C131.736 74.09 132.422 73.7443 133.028 73.2898C133.644 72.8352 134.16 72.2765 134.577 71.6136C135.003 70.9508 135.296 70.1932 135.457 69.3409L140.77 69.3693C140.571 70.7519 140.14 72.0492 139.477 73.2614C138.824 74.4735 137.967 75.5436 136.906 76.4716C135.846 77.3902 134.605 78.1098 133.185 78.6307C131.764 79.142 130.188 79.3977 128.455 79.3977C125.898 79.3977 123.616 78.8059 121.608 77.6222C119.6 76.4384 118.019 74.7292 116.864 72.4943C115.708 70.2595 115.131 67.5795 115.131 64.4545C115.131 61.3201 115.713 58.6402 116.878 56.4148C118.043 54.1799 119.629 52.4706 121.636 51.2869C123.644 50.1032 125.917 49.5114 128.455 49.5114C130.074 49.5114 131.58 49.7386 132.972 50.1932C134.364 50.6477 135.604 51.3153 136.693 52.196C137.782 53.0672 138.677 54.1373 139.378 55.4062C140.088 56.6657 140.552 58.1051 140.77 59.7244ZM159.275 69.8239V57.1818H164.417V79H159.431V75.1222H159.204C158.711 76.3437 157.902 77.3428 156.775 78.1193C155.657 78.8958 154.28 79.2841 152.641 79.2841C151.211 79.2841 149.947 78.9669 148.849 78.3324C147.76 77.6884 146.907 76.7557 146.292 75.5341C145.676 74.303 145.369 72.8163 145.369 71.0739V57.1818H150.511V70.2784C150.511 71.661 150.889 72.7595 151.647 73.5739C152.405 74.3883 153.399 74.7955 154.63 74.7955C155.388 74.7955 156.121 74.6108 156.832 74.2415C157.542 73.8722 158.124 73.3229 158.579 72.5938C159.043 71.8551 159.275 70.9318 159.275 69.8239ZM186.949 62.9489L182.261 63.4602C182.129 62.9867 181.897 62.5417 181.565 62.125C181.243 61.7083 180.808 61.3722 180.259 61.1165C179.709 60.8608 179.037 60.733 178.241 60.733C177.171 60.733 176.272 60.965 175.543 61.429C174.823 61.893 174.468 62.4943 174.477 63.233C174.468 63.8674 174.7 64.3835 175.173 64.7812C175.656 65.179 176.452 65.5057 177.56 65.7614L181.281 66.5568C183.346 67.0019 184.88 67.7074 185.884 68.6733C186.897 69.6392 187.408 70.9034 187.418 72.4659C187.408 73.839 187.006 75.0511 186.21 76.1023C185.424 77.1439 184.33 77.9583 182.929 78.5455C181.527 79.1326 179.918 79.4261 178.099 79.4261C175.429 79.4261 173.279 78.8674 171.651 77.75C170.022 76.6231 169.051 75.0559 168.739 73.0483L173.753 72.5653C173.98 73.5502 174.463 74.2936 175.202 74.7955C175.94 75.2973 176.902 75.5483 178.085 75.5483C179.307 75.5483 180.287 75.2973 181.026 74.7955C181.774 74.2936 182.148 73.6733 182.148 72.9347C182.148 72.3097 181.906 71.7936 181.423 71.3864C180.95 70.9792 180.211 70.6667 179.207 70.4489L175.486 69.6676C173.393 69.232 171.845 68.4981 170.841 67.4659C169.837 66.4242 169.34 65.108 169.349 63.517C169.34 62.1723 169.705 61.0076 170.443 60.0227C171.191 59.0284 172.228 58.2614 173.554 57.7216C174.889 57.1723 176.428 56.8977 178.17 56.8977C180.727 56.8977 182.74 57.4422 184.207 58.5312C185.685 59.6203 186.598 61.0928 186.949 62.9489ZM202.553 57.1818V61.1591H190.01V57.1818H202.553ZM193.107 51.9545H198.249V72.4375C198.249 73.1288 198.353 73.6591 198.561 74.0284C198.779 74.3883 199.063 74.6345 199.413 74.767C199.764 74.8996 200.152 74.9659 200.578 74.9659C200.9 74.9659 201.194 74.9422 201.459 74.8949C201.733 74.8475 201.942 74.8049 202.084 74.767L202.95 78.7869C202.676 78.8816 202.283 78.9858 201.771 79.0994C201.269 79.2131 200.654 79.2794 199.925 79.2983C198.637 79.3362 197.477 79.142 196.445 78.7159C195.412 78.2803 194.593 77.608 193.987 76.6989C193.391 75.7898 193.097 74.6534 193.107 73.2898V51.9545ZM216.136 79.4261C214.005 79.4261 212.158 78.9574 210.596 78.0199C209.033 77.0824 207.821 75.7708 206.96 74.0852C206.107 72.3996 205.681 70.4299 205.681 68.1761C205.681 65.9223 206.107 63.9479 206.96 62.2528C207.821 60.5578 209.033 59.2415 210.596 58.304C212.158 57.3665 214.005 56.8977 216.136 56.8977C218.266 56.8977 220.113 57.3665 221.675 58.304C223.238 59.2415 224.445 60.5578 225.298 62.2528C226.159 63.9479 226.59 65.9223 226.59 68.1761C226.59 70.4299 226.159 72.3996 225.298 74.0852C224.445 75.7708 223.238 77.0824 221.675 78.0199C220.113 78.9574 218.266 79.4261 216.136 79.4261ZM216.164 75.3068C217.319 75.3068 218.285 74.9896 219.062 74.3551C219.838 73.7112 220.416 72.8494 220.795 71.7699C221.183 70.6903 221.377 69.4877 221.377 68.1619C221.377 66.8267 221.183 65.6193 220.795 64.5398C220.416 63.4508 219.838 62.5843 219.062 61.9403C218.285 61.2964 217.319 60.9744 216.164 60.9744C214.98 60.9744 213.996 61.2964 213.21 61.9403C212.433 62.5843 211.851 63.4508 211.462 64.5398C211.084 65.6193 210.894 66.8267 210.894 68.1619C210.894 69.4877 211.084 70.6903 211.462 71.7699C211.851 72.8494 212.433 73.7112 213.21 74.3551C213.996 74.9896 214.98 75.3068 216.164 75.3068ZM239.051 79.3835C237.337 79.3835 235.803 78.9432 234.449 78.0625C233.095 77.1818 232.025 75.9034 231.239 74.2273C230.453 72.5511 230.06 70.5152 230.06 68.1193C230.06 65.6951 230.457 63.6496 231.253 61.983C232.058 60.3068 233.142 59.0426 234.506 58.1903C235.869 57.3286 237.389 56.8977 239.065 56.8977C240.344 56.8977 241.395 57.1155 242.219 57.5511C243.043 57.9773 243.696 58.4934 244.179 59.0994C244.662 59.696 245.036 60.2595 245.301 60.7898H245.514V49.9091H250.67V79H245.614V75.5625H245.301C245.036 76.0928 244.652 76.6562 244.151 77.2528C243.649 77.84 242.986 78.3419 242.162 78.7585C241.338 79.1752 240.301 79.3835 239.051 79.3835ZM240.486 75.1648C241.575 75.1648 242.503 74.8712 243.27 74.2841C244.037 73.6875 244.619 72.8589 245.017 71.7983C245.415 70.7377 245.614 69.5019 245.614 68.0909C245.614 66.6799 245.415 65.4536 245.017 64.4119C244.629 63.3703 244.051 62.5606 243.284 61.983C242.527 61.4053 241.594 61.1165 240.486 61.1165C239.34 61.1165 238.384 61.4148 237.616 62.0114C236.849 62.608 236.272 63.4318 235.884 64.483C235.495 65.5341 235.301 66.7367 235.301 68.0909C235.301 69.4545 235.495 70.6714 235.884 71.7415C236.281 72.8021 236.864 73.6402 237.631 74.2557C238.407 74.8617 239.359 75.1648 240.486 75.1648ZM259.346 87.1818C258.645 87.1818 257.996 87.125 257.4 87.0114C256.813 86.9072 256.344 86.7841 255.994 86.642L257.187 82.6364C257.935 82.8542 258.603 82.9583 259.19 82.9489C259.777 82.9394 260.293 82.7547 260.738 82.3949C261.192 82.0445 261.576 81.4574 261.888 80.6335L262.329 79.4545L254.417 57.1818H259.871L264.9 73.6591H265.127L270.17 57.1818H275.638L266.903 81.642C266.496 82.7973 265.956 83.7869 265.283 84.6108C264.611 85.4441 263.787 86.0786 262.812 86.5142C261.846 86.9593 260.691 87.1818 259.346 87.1818ZM279.589 79V44.0909H293.566C296.134 44.0909 298.276 44.4716 299.992 45.233C301.708 45.9943 302.998 47.0511 303.862 48.4034C304.725 49.7443 305.157 51.2898 305.157 53.0398C305.157 54.4034 304.884 55.6023 304.339 56.6364C303.793 57.6591 303.043 58.5 302.089 59.1591C301.146 59.8068 300.066 60.267 298.85 60.5398V60.8807C300.18 60.9375 301.424 61.3125 302.583 62.0057C303.754 62.6989 304.702 63.6705 305.43 64.9205C306.157 66.1591 306.521 67.6364 306.521 69.3523C306.521 71.2045 306.06 72.858 305.14 74.3125C304.231 75.7557 302.884 76.8977 301.1 77.7386C299.316 78.5795 297.117 79 294.504 79H279.589ZM286.969 72.9659H292.987C295.043 72.9659 296.543 72.5739 297.487 71.7898C298.43 70.9943 298.901 69.9375 298.901 68.6193C298.901 67.6534 298.668 66.8011 298.202 66.0625C297.737 65.3239 297.072 64.7443 296.208 64.3239C295.356 63.9034 294.339 63.6932 293.157 63.6932H286.969V72.9659ZM286.969 58.6989H292.441C293.452 58.6989 294.35 58.5227 295.134 58.1705C295.93 57.8068 296.555 57.2955 297.009 56.6364C297.475 55.9773 297.708 55.1875 297.708 54.267C297.708 53.0057 297.259 51.9886 296.362 51.2159C295.475 50.4432 294.214 50.0568 292.577 50.0568H286.969V58.6989ZM327.977 67.8523V52.8182H335.238V79H328.266V74.2443H327.994C327.403 75.7784 326.42 77.0114 325.045 77.9432C323.681 78.875 322.016 79.3409 320.05 79.3409C318.3 79.3409 316.761 78.9432 315.431 78.1477C314.102 77.3523 313.062 76.2216 312.312 74.7557C311.573 73.2898 311.198 71.5341 311.187 69.4886V52.8182H318.448V68.1932C318.46 69.7386 318.874 70.9602 319.692 71.858C320.511 72.7557 321.607 73.2045 322.982 73.2045C323.857 73.2045 324.675 73.0057 325.437 72.608C326.198 72.1989 326.812 71.5966 327.278 70.8011C327.755 70.0057 327.988 69.0227 327.977 67.8523ZM341.046 79V52.8182H348.308V79H341.046ZM344.694 49.4432C343.614 49.4432 342.688 49.0852 341.915 48.3693C341.154 47.642 340.773 46.7727 340.773 45.7614C340.773 44.7614 341.154 43.9034 341.915 43.1875C342.688 42.4602 343.614 42.0966 344.694 42.0966C345.773 42.0966 346.694 42.4602 347.455 43.1875C348.228 43.9034 348.614 44.7614 348.614 45.7614C348.614 46.7727 348.228 47.642 347.455 48.3693C346.694 49.0852 345.773 49.4432 344.694 49.4432ZM361.386 44.0909V79H354.124V44.0909H361.386ZM376.85 79.4261C374.862 79.4261 373.06 78.9148 371.447 77.892C369.844 76.858 368.572 75.3409 367.629 73.3409C366.697 71.3295 366.231 68.8636 366.231 65.9432C366.231 62.9432 366.714 60.4489 367.68 58.4602C368.646 56.4602 369.93 54.9659 371.532 53.9773C373.146 52.9773 374.913 52.4773 376.833 52.4773C378.299 52.4773 379.521 52.7273 380.498 53.2273C381.487 53.7159 382.282 54.3295 382.884 55.0682C383.498 55.7955 383.964 56.5114 384.282 57.2159H384.504V44.0909H391.748V79H384.589V74.8068H384.282C383.941 75.5341 383.458 76.2557 382.833 76.9716C382.219 77.6761 381.418 78.2614 380.43 78.7273C379.452 79.1932 378.259 79.4261 376.85 79.4261ZM379.151 73.6477C380.322 73.6477 381.31 73.3295 382.117 72.6932C382.935 72.0455 383.56 71.142 383.992 69.983C384.435 68.8239 384.657 67.4659 384.657 65.9091C384.657 64.3523 384.441 63 384.009 61.8523C383.577 60.7045 382.952 59.8182 382.134 59.1932C381.316 58.5682 380.322 58.2557 379.151 58.2557C377.958 58.2557 376.952 58.5795 376.134 59.2273C375.316 59.875 374.697 60.7727 374.276 61.9205C373.856 63.0682 373.646 64.3977 373.646 65.9091C373.646 67.4318 373.856 68.7784 374.276 69.9489C374.708 71.108 375.327 72.017 376.134 72.6761C376.952 73.3239 377.958 73.6477 379.151 73.6477ZM409.65 79.5114C406.957 79.5114 404.638 78.9659 402.695 77.875C400.763 76.7727 399.275 75.2159 398.229 73.2045C397.184 71.1818 396.661 68.7898 396.661 66.0284C396.661 63.3352 397.184 60.9716 398.229 58.9375C399.275 56.9034 400.746 55.3182 402.644 54.1818C404.553 53.0455 406.792 52.4773 409.36 52.4773C411.087 52.4773 412.695 52.7557 414.184 53.3125C415.684 53.858 416.991 54.6818 418.104 55.7841C419.229 56.8864 420.104 58.2727 420.729 59.9432C421.354 61.6023 421.667 63.5455 421.667 65.7727V67.767H399.559V63.267H414.832C414.832 62.2216 414.604 61.2955 414.15 60.4886C413.695 59.6818 413.065 59.0511 412.258 58.5966C411.462 58.1307 410.536 57.8977 409.479 57.8977C408.377 57.8977 407.4 58.1534 406.548 58.6648C405.707 59.1648 405.048 59.8409 404.57 60.6932C404.093 61.5341 403.849 62.4716 403.837 63.5057V67.7841C403.837 69.0795 404.076 70.1989 404.553 71.142C405.042 72.0852 405.729 72.8125 406.616 73.3239C407.502 73.8352 408.553 74.0909 409.769 74.0909C410.576 74.0909 411.315 73.9773 411.985 73.75C412.656 73.5227 413.229 73.1818 413.707 72.7273C414.184 72.2727 414.548 71.7159 414.798 71.0568L421.513 71.5C421.173 73.1136 420.474 74.5227 419.417 75.7273C418.371 76.9205 417.019 77.8523 415.36 78.5227C413.712 79.1818 411.809 79.5114 409.65 79.5114ZM426.406 79V52.8182H433.445V57.3864H433.718C434.195 55.7614 434.996 54.5341 436.121 53.7045C437.246 52.8636 438.542 52.4432 440.008 52.4432C440.371 52.4432 440.763 52.4659 441.184 52.5114C441.604 52.5568 441.974 52.6193 442.292 52.6989V59.142C441.951 59.0398 441.479 58.9489 440.877 58.8693C440.275 58.7898 439.724 58.75 439.224 58.75C438.156 58.75 437.201 58.983 436.36 59.4489C435.531 59.9034 434.871 60.5398 434.383 61.358C433.906 62.1761 433.667 63.1193 433.667 64.1875V79H426.406Z" fill="#0F172A"/>
</svg>
